<?xml version="1.0" encoding="utf-8" standalone="no"?>
<!DOCTYPE svg PUBLIC "-//W3C//DTD SVG 1.1//EN"
  "http://www.w3.org/Graphics/SVG/1.1/DTD/svg11.dtd">
<svg xmlns:xlink="http://www.w3.org/1999/xlink" width="576pt" height="288pt" viewBox="0 0 576 288" xmlns="http://www.w3.org/2000/svg" version="1.1">
 <metadata>
  <rdf:RDF xmlns:dc="http://purl.org/dc/elements/1.1/" xmlns:cc="http://creativecommons.org/ns#" xmlns:rdf="http://www.w3.org/1999/02/22-rdf-syntax-ns#">
   <cc:Work>
    <dc:type rdf:resource="http://purl.org/dc/dcmitype/StillImage"/>
    <dc:date>2024-04-24T00:36:02.886341</dc:date>
    <dc:format>image/svg+xml</dc:format>
    <dc:creator>
     <cc:Agent>
      <dc:title>Matplotlib v3.7.1, https://matplotlib.org/</dc:title>
     </cc:Agent>
    </dc:creator>
   </cc:Work>
  </rdf:RDF>
 </metadata>
 <defs>
  <style type="text/css">*{stroke-linejoin: round; stroke-linecap: butt}</style>
 </defs>
 <g id="figure_1">
  <g id="patch_1">
   <path d="M 0 288 
L 576 288 
L 576 0 
L 0 0 
z
" style="fill: #ffffff"/>
  </g>
  <g id="axes_1">
   <g id="patch_2">
    <path d="M 57.539375 257.065625 
L 563.04 257.065625 
L 563.04 12.96 
L 57.539375 12.96 
z
" style="fill: #ffffff"/>
   </g>
   <g id="matplotlib.axis_1">
    <g id="xtick_1">
     <g id="line2d_1">
      <defs>
       <path id="me68fae37de" d="M 0 0 
L 0 3.5 
" style="stroke: #000000; stroke-width: 0.8"/>
      </defs>
      <g>
       <use xlink:href="#me68fae37de" x="91.434616" y="257.065625" style="stroke: #000000; stroke-width: 0.8"/>
      </g>
     </g>
     <g id="text_1">
      <text style="font: 12px 'Arial', sans-serif; text-anchor: middle" x="91.434616" y="272.655" transform="rotate(-0 91.434616 272.655)">1992</text>
     </g>
    </g>
    <g id="xtick_2">
     <g id="line2d_2">
      <g>
       <use xlink:href="#me68fae37de" x="154.482484" y="257.065625" style="stroke: #000000; stroke-width: 0.8"/>
      </g>
     </g>
     <g id="text_2">
      <text style="font: 12px 'Arial', sans-serif; text-anchor: middle" x="154.482484" y="272.655" transform="rotate(-0 154.482484 272.655)">1996</text>
     </g>
    </g>
    <g id="xtick_3">
     <g id="line2d_3">
      <g>
       <use xlink:href="#me68fae37de" x="217.530351" y="257.065625" style="stroke: #000000; stroke-width: 0.8"/>
      </g>
     </g>
     <g id="text_3">
      <text style="font: 12px 'Arial', sans-serif; text-anchor: middle" x="217.530351" y="272.655" transform="rotate(-0 217.530351 272.655)">2000</text>
     </g>
    </g>
    <g id="xtick_4">
     <g id="line2d_4">
      <g>
       <use xlink:href="#me68fae37de" x="280.578218" y="257.065625" style="stroke: #000000; stroke-width: 0.8"/>
      </g>
     </g>
     <g id="text_4">
      <text style="font: 12px 'Arial', sans-serif; text-anchor: middle" x="280.578218" y="272.655" transform="rotate(-0 280.578218 272.655)">2004</text>
     </g>
    </g>
    <g id="xtick_5">
     <g id="line2d_5">
      <g>
       <use xlink:href="#me68fae37de" x="343.626086" y="257.065625" style="stroke: #000000; stroke-width: 0.8"/>
      </g>
     </g>
     <g id="text_5">
      <text style="font: 12px 'Arial', sans-serif; text-anchor: middle" x="343.626086" y="272.655" transform="rotate(-0 343.626086 272.655)">2008</text>
     </g>
    </g>
    <g id="xtick_6">
     <g id="line2d_6">
      <g>
       <use xlink:href="#me68fae37de" x="406.673953" y="257.065625" style="stroke: #000000; stroke-width: 0.8"/>
      </g>
     </g>
     <g id="text_6">
      <text style="font: 12px 'Arial', sans-serif; text-anchor: middle" x="406.673953" y="272.655" transform="rotate(-0 406.673953 272.655)">2012</text>
     </g>
    </g>
    <g id="xtick_7">
     <g id="line2d_7">
      <g>
       <use xlink:href="#me68fae37de" x="469.72182" y="257.065625" style="stroke: #000000; stroke-width: 0.8"/>
      </g>
     </g>
     <g id="text_7">
      <text style="font: 12px 'Arial', sans-serif; text-anchor: middle" x="469.72182" y="272.655" transform="rotate(-0 469.72182 272.655)">2016</text>
     </g>
    </g>
    <g id="xtick_8">
     <g id="line2d_8">
      <g>
       <use xlink:href="#me68fae37de" x="532.769688" y="257.065625" style="stroke: #000000; stroke-width: 0.8"/>
      </g>
     </g>
     <g id="text_8">
      <text style="font: 12px 'Arial', sans-serif; text-anchor: middle" x="532.769688" y="272.655" transform="rotate(-0 532.769688 272.655)">2020</text>
     </g>
    </g>
   </g>
   <g id="matplotlib.axis_2">
    <g id="ytick_1">
     <g id="line2d_9">
      <defs>
       <path id="mf25354a014" d="M 0 0 
L -3.5 0 
" style="stroke: #000000; stroke-width: 0.8"/>
      </defs>
      <g>
       <use xlink:href="#mf25354a014" x="57.539375" y="245.969915" style="stroke: #000000; stroke-width: 0.8"/>
      </g>
     </g>
     <g id="text_9">
      <text style="font: 12px 'Arial', sans-serif; text-anchor: end" x="50.539375" y="250.264602" transform="rotate(-0 50.539375 250.264602)">0</text>
     </g>
    </g>
    <g id="ytick_2">
     <g id="line2d_10">
      <g>
       <use xlink:href="#mf25354a014" x="57.539375" y="210.745438" style="stroke: #000000; stroke-width: 0.8"/>
      </g>
     </g>
     <g id="text_10">
      <text style="font: 12px 'Arial', sans-serif; text-anchor: end" x="50.539375" y="215.040125" transform="rotate(-0 50.539375 215.040125)">20</text>
     </g>
    </g>
    <g id="ytick_3">
     <g id="line2d_11">
      <g>
       <use xlink:href="#mf25354a014" x="57.539375" y="175.520961" style="stroke: #000000; stroke-width: 0.8"/>
      </g>
     </g>
     <g id="text_11">
      <text style="font: 12px 'Arial', sans-serif; text-anchor: end" x="50.539375" y="179.815648" transform="rotate(-0 50.539375 179.815648)">40</text>
     </g>
    </g>
    <g id="ytick_4">
     <g id="line2d_12">
      <g>
       <use xlink:href="#mf25354a014" x="57.539375" y="140.296484" style="stroke: #000000; stroke-width: 0.8"/>
      </g>
     </g>
     <g id="text_12">
      <text style="font: 12px 'Arial', sans-serif; text-anchor: end" x="50.539375" y="144.591172" transform="rotate(-0 50.539375 144.591172)">60</text>
     </g>
    </g>
    <g id="ytick_5">
     <g id="line2d_13">
      <g>
       <use xlink:href="#mf25354a014" x="57.539375" y="105.072007" style="stroke: #000000; stroke-width: 0.8"/>
      </g>
     </g>
     <g id="text_13">
      <text style="font: 12px 'Arial', sans-serif; text-anchor: end" x="50.539375" y="109.366695" transform="rotate(-0 50.539375 109.366695)">80</text>
     </g>
    </g>
    <g id="ytick_6">
     <g id="line2d_14">
      <g>
       <use xlink:href="#mf25354a014" x="57.539375" y="69.84753" style="stroke: #000000; stroke-width: 0.8"/>
      </g>
     </g>
     <g id="text_14">
      <text style="font: 12px 'Arial', sans-serif; text-anchor: end" x="50.539375" y="74.142218" transform="rotate(-0 50.539375 74.142218)">100</text>
     </g>
    </g>
    <g id="ytick_7">
     <g id="line2d_15">
      <g>
       <use xlink:href="#mf25354a014" x="57.539375" y="34.623053" style="stroke: #000000; stroke-width: 0.8"/>
      </g>
     </g>
     <g id="text_15">
      <text style="font: 12px 'Arial', sans-serif; text-anchor: end" x="50.539375" y="38.917741" transform="rotate(-0 50.539375 38.917741)">120</text>
     </g>
    </g>
    <g id="text_16">
     <!-- TP [mg-P m$^{-3}$] -->
     <g transform="translate(23.88 175.152813) rotate(-90)">
      <text>
       <tspan style="font: 12px 'Arial'" x="0 7.330078 15.333984 18.667969 22.001953 31.998047 38.671875 42.667969 50.671875 54.005859 76.827539" y="-0.171875">TP [mg-P m]</tspan>
       <tspan style="font: 8.4px 'DejaVu Sans'" x="64.116797 71.155078" y="-4.765625">−3</tspan>
      </text>
     </g>
    </g>
   </g>
   <g id="line2d_16">
    <path d="M 80.516676 193.133199 
L 85.090991 193.133199 
L 88.111765 175.520961 
L 96.526778 52.235292 
L 99.245475 175.520961 
L 104.423944 157.908722 
L 112.234802 193.133199 
L 115.212422 228.357676 
L 120.131969 184.32708 
L 127.338672 24.05571 
L 130.704677 228.357676 
L 135.796839 147.341379 
L 142.701465 200.178095 
L 146.369548 200.178095 
L 159.056798 189.610752 
L 162.034418 191.371976 
L 166.867657 217.790333 
L 174.721669 189.610752 
L 178.04452 196.655647 
L 181.971526 205.461766 
L 207.087104 186.088304 
L 223.356129 219.551557 
L 228.189367 219.551557 
L 238.80523 179.043409 
L 255.376333 219.551557 
L 272.594744 214.267886 
L 288.345923 245.969915 
L 300.860557 196.655647 
L 318.63997 242.447467 
L 334.347994 245.969915 
L 350.875943 198.416871 
L 366.842891 217.790333 
L 382.550915 219.551557 
L 398.25894 205.461766 
L 413.966964 205.461766 
L 428.337217 166.714842 
L 445.68509 210.745438 
L 461.393115 166.714842 
L 477.834756 208.984214 
L 492.809164 194.894423 
L 508.517188 196.655647 
L 524.52729 205.461766 
L 540.062699 203.700542 
" clip-path="url(#p3f2a3f64af)" style="fill: none; stroke: #ffa500; stroke-width: 1.5; stroke-linecap: square"/>
    <defs>
     <path id="m6e5e8091fb" d="M 0 1.5 
C 0.397805 1.5 0.77937 1.341951 1.06066 1.06066 
C 1.341951 0.77937 1.5 0.397805 1.5 0 
C 1.5 -0.397805 1.341951 -0.77937 1.06066 -1.06066 
C 0.77937 -1.341951 0.397805 -1.5 0 -1.5 
C -0.397805 -1.5 -0.77937 -1.341951 -1.06066 -1.06066 
C -1.341951 -0.77937 -1.5 -0.397805 -1.5 0 
C -1.5 0.397805 -1.341951 0.77937 -1.06066 1.06066 
C -0.77937 1.341951 -0.397805 1.5 0 1.5 
z
" style="stroke: #ffa500"/>
    </defs>
    <g clip-path="url(#p3f2a3f64af)">
     <use xlink:href="#m6e5e8091fb" x="80.516676" y="193.133199" style="fill: #ffa500; stroke: #ffa500"/>
     <use xlink:href="#m6e5e8091fb" x="85.090991" y="193.133199" style="fill: #ffa500; stroke: #ffa500"/>
     <use xlink:href="#m6e5e8091fb" x="88.111765" y="175.520961" style="fill: #ffa500; stroke: #ffa500"/>
     <use xlink:href="#m6e5e8091fb" x="96.526778" y="52.235292" style="fill: #ffa500; stroke: #ffa500"/>
     <use xlink:href="#m6e5e8091fb" x="99.245475" y="175.520961" style="fill: #ffa500; stroke: #ffa500"/>
     <use xlink:href="#m6e5e8091fb" x="104.423944" y="157.908722" style="fill: #ffa500; stroke: #ffa500"/>
     <use xlink:href="#m6e5e8091fb" x="112.234802" y="193.133199" style="fill: #ffa500; stroke: #ffa500"/>
     <use xlink:href="#m6e5e8091fb" x="115.212422" y="228.357676" style="fill: #ffa500; stroke: #ffa500"/>
     <use xlink:href="#m6e5e8091fb" x="120.131969" y="184.32708" style="fill: #ffa500; stroke: #ffa500"/>
     <use xlink:href="#m6e5e8091fb" x="127.338672" y="24.05571" style="fill: #ffa500; stroke: #ffa500"/>
     <use xlink:href="#m6e5e8091fb" x="130.704677" y="228.357676" style="fill: #ffa500; stroke: #ffa500"/>
     <use xlink:href="#m6e5e8091fb" x="135.796839" y="147.341379" style="fill: #ffa500; stroke: #ffa500"/>
     <use xlink:href="#m6e5e8091fb" x="142.701465" y="200.178095" style="fill: #ffa500; stroke: #ffa500"/>
     <use xlink:href="#m6e5e8091fb" x="146.369548" y="200.178095" style="fill: #ffa500; stroke: #ffa500"/>
     <use xlink:href="#m6e5e8091fb" x="159.056798" y="189.610752" style="fill: #ffa500; stroke: #ffa500"/>
     <use xlink:href="#m6e5e8091fb" x="162.034418" y="191.371976" style="fill: #ffa500; stroke: #ffa500"/>
     <use xlink:href="#m6e5e8091fb" x="166.867657" y="217.790333" style="fill: #ffa500; stroke: #ffa500"/>
     <use xlink:href="#m6e5e8091fb" x="174.721669" y="189.610752" style="fill: #ffa500; stroke: #ffa500"/>
     <use xlink:href="#m6e5e8091fb" x="178.04452" y="196.655647" style="fill: #ffa500; stroke: #ffa500"/>
     <use xlink:href="#m6e5e8091fb" x="181.971526" y="205.461766" style="fill: #ffa500; stroke: #ffa500"/>
     <use xlink:href="#m6e5e8091fb" x="207.087104" y="186.088304" style="fill: #ffa500; stroke: #ffa500"/>
     <use xlink:href="#m6e5e8091fb" x="223.356129" y="219.551557" style="fill: #ffa500; stroke: #ffa500"/>
     <use xlink:href="#m6e5e8091fb" x="228.189367" y="219.551557" style="fill: #ffa500; stroke: #ffa500"/>
     <use xlink:href="#m6e5e8091fb" x="238.80523" y="179.043409" style="fill: #ffa500; stroke: #ffa500"/>
     <use xlink:href="#m6e5e8091fb" x="255.376333" y="219.551557" style="fill: #ffa500; stroke: #ffa500"/>
     <use xlink:href="#m6e5e8091fb" x="272.594744" y="214.267886" style="fill: #ffa500; stroke: #ffa500"/>
     <use xlink:href="#m6e5e8091fb" x="288.345923" y="245.969915" style="fill: #ffa500; stroke: #ffa500"/>
     <use xlink:href="#m6e5e8091fb" x="300.860557" y="196.655647" style="fill: #ffa500; stroke: #ffa500"/>
     <use xlink:href="#m6e5e8091fb" x="318.63997" y="242.447467" style="fill: #ffa500; stroke: #ffa500"/>
     <use xlink:href="#m6e5e8091fb" x="334.347994" y="245.969915" style="fill: #ffa500; stroke: #ffa500"/>
     <use xlink:href="#m6e5e8091fb" x="350.875943" y="198.416871" style="fill: #ffa500; stroke: #ffa500"/>
     <use xlink:href="#m6e5e8091fb" x="366.842891" y="217.790333" style="fill: #ffa500; stroke: #ffa500"/>
     <use xlink:href="#m6e5e8091fb" x="382.550915" y="219.551557" style="fill: #ffa500; stroke: #ffa500"/>
     <use xlink:href="#m6e5e8091fb" x="398.25894" y="205.461766" style="fill: #ffa500; stroke: #ffa500"/>
     <use xlink:href="#m6e5e8091fb" x="413.966964" y="205.461766" style="fill: #ffa500; stroke: #ffa500"/>
     <use xlink:href="#m6e5e8091fb" x="428.337217" y="166.714842" style="fill: #ffa500; stroke: #ffa500"/>
     <use xlink:href="#m6e5e8091fb" x="445.68509" y="210.745438" style="fill: #ffa500; stroke: #ffa500"/>
     <use xlink:href="#m6e5e8091fb" x="461.393115" y="166.714842" style="fill: #ffa500; stroke: #ffa500"/>
     <use xlink:href="#m6e5e8091fb" x="477.834756" y="208.984214" style="fill: #ffa500; stroke: #ffa500"/>
     <use xlink:href="#m6e5e8091fb" x="492.809164" y="194.894423" style="fill: #ffa500; stroke: #ffa500"/>
     <use xlink:href="#m6e5e8091fb" x="508.517188" y="196.655647" style="fill: #ffa500; stroke: #ffa500"/>
     <use xlink:href="#m6e5e8091fb" x="524.52729" y="205.461766" style="fill: #ffa500; stroke: #ffa500"/>
     <use xlink:href="#m6e5e8091fb" x="540.062699" y="203.700542" style="fill: #ffa500; stroke: #ffa500"/>
    </g>
   </g>
   <g id="line2d_17">
    <path d="M 80.516676 193.133199 
L 85.090991 181.391707 
L 88.111765 193.133199 
L 96.526778 175.520961 
L 99.245475 152.037976 
L 104.423944 146.16723 
L 112.234802 210.745438 
L 115.212422 222.48693 
L 120.131969 167.888991 
L 127.338672 156.147499 
L 130.704677 193.133199 
L 135.796839 147.341379 
L 142.701465 192.546125 
L 146.369548 174.933886 
L 159.056798 200.178095 
L 162.034418 189.610752 
L 166.867657 210.158363 
L 174.721669 193.720274 
L 178.04452 197.242722 
L 181.971526 198.416871 
L 207.087104 203.113468 
L 223.356129 219.551557 
L 228.189367 210.745438 
L 238.80523 190.784901 
L 255.376333 208.984214 
L 272.594744 218.670945 
L 288.345923 226.596452 
L 300.860557 217.203259 
L 318.63997 235.989646 
L 334.347994 234.228422 
L 350.875943 196.068572 
L 366.842891 214.267886 
L 382.550915 204.874692 
L 398.25894 193.133199 
L 413.966964 207.810065 
L 428.337217 216.029109 
L 445.68509 215.442035 
L 461.393115 153.505663 
L 477.834756 208.397139 
L 492.809164 183.152931 
L 508.517188 214.267886 
L 524.52729 200.765169 
L 540.062699 192.546125 
" clip-path="url(#p3f2a3f64af)" style="fill: none; stroke: #cc0000; stroke-width: 1.5; stroke-linecap: square"/>
    <defs>
     <path id="m18de375650" d="M 0 1.5 
C 0.397805 1.5 0.77937 1.341951 1.06066 1.06066 
C 1.341951 0.77937 1.5 0.397805 1.5 0 
C 1.5 -0.397805 1.341951 -0.77937 1.06066 -1.06066 
C 0.77937 -1.341951 0.397805 -1.5 0 -1.5 
C -0.397805 -1.5 -0.77937 -1.341951 -1.06066 -1.06066 
C -1.341951 -0.77937 -1.5 -0.397805 -1.5 0 
C -1.5 0.397805 -1.341951 0.77937 -1.06066 1.06066 
C -0.77937 1.341951 -0.397805 1.5 0 1.5 
z
" style="stroke: #cc0000"/>
    </defs>
    <g clip-path="url(#p3f2a3f64af)">
     <use xlink:href="#m18de375650" x="80.516676" y="193.133199" style="fill: #cc0000; stroke: #cc0000"/>
     <use xlink:href="#m18de375650" x="85.090991" y="181.391707" style="fill: #cc0000; stroke: #cc0000"/>
     <use xlink:href="#m18de375650" x="88.111765" y="193.133199" style="fill: #cc0000; stroke: #cc0000"/>
     <use xlink:href="#m18de375650" x="96.526778" y="175.520961" style="fill: #cc0000; stroke: #cc0000"/>
     <use xlink:href="#m18de375650" x="99.245475" y="152.037976" style="fill: #cc0000; stroke: #cc0000"/>
     <use xlink:href="#m18de375650" x="104.423944" y="146.16723" style="fill: #cc0000; stroke: #cc0000"/>
     <use xlink:href="#m18de375650" x="112.234802" y="210.745438" style="fill: #cc0000; stroke: #cc0000"/>
     <use xlink:href="#m18de375650" x="115.212422" y="222.48693" style="fill: #cc0000; stroke: #cc0000"/>
     <use xlink:href="#m18de375650" x="120.131969" y="167.888991" style="fill: #cc0000; stroke: #cc0000"/>
     <use xlink:href="#m18de375650" x="127.338672" y="156.147499" style="fill: #cc0000; stroke: #cc0000"/>
     <use xlink:href="#m18de375650" x="130.704677" y="193.133199" style="fill: #cc0000; stroke: #cc0000"/>
     <use xlink:href="#m18de375650" x="135.796839" y="147.341379" style="fill: #cc0000; stroke: #cc0000"/>
     <use xlink:href="#m18de375650" x="142.701465" y="192.546125" style="fill: #cc0000; stroke: #cc0000"/>
     <use xlink:href="#m18de375650" x="146.369548" y="174.933886" style="fill: #cc0000; stroke: #cc0000"/>
     <use xlink:href="#m18de375650" x="159.056798" y="200.178095" style="fill: #cc0000; stroke: #cc0000"/>
     <use xlink:href="#m18de375650" x="162.034418" y="189.610752" style="fill: #cc0000; stroke: #cc0000"/>
     <use xlink:href="#m18de375650" x="166.867657" y="210.158363" style="fill: #cc0000; stroke: #cc0000"/>
     <use xlink:href="#m18de375650" x="174.721669" y="193.720274" style="fill: #cc0000; stroke: #cc0000"/>
     <use xlink:href="#m18de375650" x="178.04452" y="197.242722" style="fill: #cc0000; stroke: #cc0000"/>
     <use xlink:href="#m18de375650" x="181.971526" y="198.416871" style="fill: #cc0000; stroke: #cc0000"/>
     <use xlink:href="#m18de375650" x="207.087104" y="203.113468" style="fill: #cc0000; stroke: #cc0000"/>
     <use xlink:href="#m18de375650" x="223.356129" y="219.551557" style="fill: #cc0000; stroke: #cc0000"/>
     <use xlink:href="#m18de375650" x="228.189367" y="210.745438" style="fill: #cc0000; stroke: #cc0000"/>
     <use xlink:href="#m18de375650" x="238.80523" y="190.784901" style="fill: #cc0000; stroke: #cc0000"/>
     <use xlink:href="#m18de375650" x="255.376333" y="208.984214" style="fill: #cc0000; stroke: #cc0000"/>
     <use xlink:href="#m18de375650" x="272.594744" y="218.670945" style="fill: #cc0000; stroke: #cc0000"/>
     <use xlink:href="#m18de375650" x="288.345923" y="226.596452" style="fill: #cc0000; stroke: #cc0000"/>
     <use xlink:href="#m18de375650" x="300.860557" y="217.203259" style="fill: #cc0000; stroke: #cc0000"/>
     <use xlink:href="#m18de375650" x="318.63997" y="235.989646" style="fill: #cc0000; stroke: #cc0000"/>
     <use xlink:href="#m18de375650" x="334.347994" y="234.228422" style="fill: #cc0000; stroke: #cc0000"/>
     <use xlink:href="#m18de375650" x="350.875943" y="196.068572" style="fill: #cc0000; stroke: #cc0000"/>
     <use xlink:href="#m18de375650" x="366.842891" y="214.267886" style="fill: #cc0000; stroke: #cc0000"/>
     <use xlink:href="#m18de375650" x="382.550915" y="204.874692" style="fill: #cc0000; stroke: #cc0000"/>
     <use xlink:href="#m18de375650" x="398.25894" y="193.133199" style="fill: #cc0000; stroke: #cc0000"/>
     <use xlink:href="#m18de375650" x="413.966964" y="207.810065" style="fill: #cc0000; stroke: #cc0000"/>
     <use xlink:href="#m18de375650" x="428.337217" y="216.029109" style="fill: #cc0000; stroke: #cc0000"/>
     <use xlink:href="#m18de375650" x="445.68509" y="215.442035" style="fill: #cc0000; stroke: #cc0000"/>
     <use xlink:href="#m18de375650" x="461.393115" y="153.505663" style="fill: #cc0000; stroke: #cc0000"/>
     <use xlink:href="#m18de375650" x="477.834756" y="208.397139" style="fill: #cc0000; stroke: #cc0000"/>
     <use xlink:href="#m18de375650" x="492.809164" y="183.152931" style="fill: #cc0000; stroke: #cc0000"/>
     <use xlink:href="#m18de375650" x="508.517188" y="214.267886" style="fill: #cc0000; stroke: #cc0000"/>
     <use xlink:href="#m18de375650" x="524.52729" y="200.765169" style="fill: #cc0000; stroke: #cc0000"/>
     <use xlink:href="#m18de375650" x="540.062699" y="192.546125" style="fill: #cc0000; stroke: #cc0000"/>
    </g>
   </g>
   <g id="patch_3">
    <path d="M 57.539375 257.065625 
L 57.539375 12.96 
" style="fill: none; stroke: #000000; stroke-width: 0.8; stroke-linejoin: miter; stroke-linecap: square"/>
   </g>
   <g id="patch_4">
    <path d="M 563.04 257.065625 
L 563.04 12.96 
" style="fill: none; stroke: #000000; stroke-width: 0.8; stroke-linejoin: miter; stroke-linecap: square"/>
   </g>
   <g id="patch_5">
    <path d="M 57.539375 257.065625 
L 563.04 257.065625 
" style="fill: none; stroke: #000000; stroke-width: 0.8; stroke-linejoin: miter; stroke-linecap: square"/>
   </g>
   <g id="patch_6">
    <path d="M 57.539375 12.96 
L 563.04 12.96 
" style="fill: none; stroke: #000000; stroke-width: 0.8; stroke-linejoin: miter; stroke-linecap: square"/>
   </g>
   <g id="legend_1">
    <g id="patch_7">
     <path d="M 479.64 59.28 
L 554.64 59.28 
Q 557.04 59.28 557.04 56.88 
L 557.04 21.36 
Q 557.04 18.96 554.64 18.96 
L 479.64 18.96 
Q 477.24 18.96 477.24 21.36 
L 477.24 56.88 
Q 477.24 59.28 479.64 59.28 
z
" style="fill: #ffffff; opacity: 0.8; stroke: #cccccc; stroke-linejoin: miter"/>
    </g>
    <g id="line2d_18">
     <path d="M 482.04 28.2 
L 494.04 28.2 
L 506.04 28.2 
" style="fill: none; stroke: #ffa500; stroke-width: 1.5; stroke-linecap: square"/>
     <g>
      <use xlink:href="#m6e5e8091fb" x="494.04" y="28.2" style="fill: #ffa500; stroke: #ffa500"/>
     </g>
    </g>
    <g id="text_17">
     <!-- TP$_{\rm epi}$ -->
     <g transform="translate(515.64 32.4)">
      <text>
       <tspan style="font: 12px 'Arial'" x="0 7.330078" y="-0.40625">TP</tspan>
       <tspan style="font: 8.4px 'DejaVu Sans'" x="15.448828 20.616797 25.948828" y="1.5625">epi</tspan>
      </text>
     </g>
    </g>
    <g id="line2d_19">
     <path d="M 482.04 46.56 
L 494.04 46.56 
L 506.04 46.56 
" style="fill: none; stroke: #cc0000; stroke-width: 1.5; stroke-linecap: square"/>
     <g>
      <use xlink:href="#m18de375650" x="494.04" y="46.56" style="fill: #cc0000; stroke: #cc0000"/>
     </g>
    </g>
    <g id="text_18">
     <!-- TP$_{\rm hypo}$ -->
     <g transform="translate(515.64 50.76)">
      <text>
       <tspan style="font: 12px 'Arial'" x="0 7.330078" y="-0.40625">TP</tspan>
       <tspan style="font: 8.4px 'DejaVu Sans'" x="15.448828 20.772656 25.74375 31.075781" y="1.5625">hypo</tspan>
      </text>
     </g>
    </g>
   </g>
  </g>
 </g>
 <defs>
  <clipPath id="p3f2a3f64af">
   <rect x="57.539375" y="12.96" width="505.500625" height="244.105625"/>
  </clipPath>
 </defs>
</svg>
