<?xml version="1.0" encoding="utf-8" standalone="no"?>
<!DOCTYPE svg PUBLIC "-//W3C//DTD SVG 1.1//EN"
  "http://www.w3.org/Graphics/SVG/1.1/DTD/svg11.dtd">
<svg xmlns:xlink="http://www.w3.org/1999/xlink" width="576pt" height="432pt" viewBox="0 0 576 432" xmlns="http://www.w3.org/2000/svg" version="1.1">
 <metadata>
  <rdf:RDF xmlns:dc="http://purl.org/dc/elements/1.1/" xmlns:cc="http://creativecommons.org/ns#" xmlns:rdf="http://www.w3.org/1999/02/22-rdf-syntax-ns#">
   <cc:Work>
    <dc:type rdf:resource="http://purl.org/dc/dcmitype/StillImage"/>
    <dc:date>2024-04-23T17:16:19.150246</dc:date>
    <dc:format>image/svg+xml</dc:format>
    <dc:creator>
     <cc:Agent>
      <dc:title>Matplotlib v3.7.1, https://matplotlib.org/</dc:title>
     </cc:Agent>
    </dc:creator>
   </cc:Work>
  </rdf:RDF>
 </metadata>
 <defs>
  <style type="text/css">*{stroke-linejoin: round; stroke-linecap: butt}</style>
 </defs>
 <g id="figure_1">
  <g id="patch_1">
   <path d="M 0 432 
L 576 432 
L 576 0 
L 0 0 
z
" style="fill: #ffffff"/>
  </g>
  <g id="axes_1">
   <g id="patch_2">
    <path d="M 57.539375 198.782812 
L 563.04 198.782812 
L 563.04 12.96 
L 57.539375 12.96 
z
" style="fill: #ffffff"/>
   </g>
   <g id="matplotlib.axis_1">
    <g id="xtick_1">
     <g id="line2d_1">
      <defs>
       <path id="m35fe547c21" d="M 0 0 
L 0 3.5 
" style="stroke: #000000; stroke-width: 0.8"/>
      </defs>
      <g>
       <use xlink:href="#m35fe547c21" x="80.516676" y="198.782812" style="stroke: #000000; stroke-width: 0.8"/>
      </g>
     </g>
    </g>
    <g id="xtick_2">
     <g id="line2d_2">
      <g>
       <use xlink:href="#m35fe547c21" x="126.446112" y="198.782812" style="stroke: #000000; stroke-width: 0.8"/>
      </g>
     </g>
    </g>
    <g id="xtick_3">
     <g id="line2d_3">
      <g>
       <use xlink:href="#m35fe547c21" x="172.375547" y="198.782812" style="stroke: #000000; stroke-width: 0.8"/>
      </g>
     </g>
    </g>
    <g id="xtick_4">
     <g id="line2d_4">
      <g>
       <use xlink:href="#m35fe547c21" x="218.430817" y="198.782812" style="stroke: #000000; stroke-width: 0.8"/>
      </g>
     </g>
    </g>
    <g id="xtick_5">
     <g id="line2d_5">
      <g>
       <use xlink:href="#m35fe547c21" x="264.360252" y="198.782812" style="stroke: #000000; stroke-width: 0.8"/>
      </g>
     </g>
    </g>
    <g id="xtick_6">
     <g id="line2d_6">
      <g>
       <use xlink:href="#m35fe547c21" x="310.289688" y="198.782812" style="stroke: #000000; stroke-width: 0.8"/>
      </g>
     </g>
    </g>
    <g id="xtick_7">
     <g id="line2d_7">
      <g>
       <use xlink:href="#m35fe547c21" x="356.219123" y="198.782812" style="stroke: #000000; stroke-width: 0.8"/>
      </g>
     </g>
    </g>
    <g id="xtick_8">
     <g id="line2d_8">
      <g>
       <use xlink:href="#m35fe547c21" x="402.274392" y="198.782812" style="stroke: #000000; stroke-width: 0.8"/>
      </g>
     </g>
    </g>
    <g id="xtick_9">
     <g id="line2d_9">
      <g>
       <use xlink:href="#m35fe547c21" x="448.203828" y="198.782812" style="stroke: #000000; stroke-width: 0.8"/>
      </g>
     </g>
    </g>
    <g id="xtick_10">
     <g id="line2d_10">
      <g>
       <use xlink:href="#m35fe547c21" x="494.133263" y="198.782812" style="stroke: #000000; stroke-width: 0.8"/>
      </g>
     </g>
    </g>
    <g id="xtick_11">
     <g id="line2d_11">
      <g>
       <use xlink:href="#m35fe547c21" x="540.062699" y="198.782812" style="stroke: #000000; stroke-width: 0.8"/>
      </g>
     </g>
    </g>
   </g>
   <g id="matplotlib.axis_2">
    <g id="ytick_1">
     <g id="line2d_12">
      <defs>
       <path id="mcc29693ef1" d="M 0 0 
L -3.5 0 
" style="stroke: #000000; stroke-width: 0.8"/>
      </defs>
      <g>
       <use xlink:href="#mcc29693ef1" x="57.539375" y="190.179387" style="stroke: #000000; stroke-width: 0.8"/>
      </g>
     </g>
     <g id="text_1">
      <text style="font: 12px 'Arial', sans-serif; text-anchor: end" x="50.539375" y="194.474074" transform="rotate(-0 50.539375 194.474074)">0</text>
     </g>
    </g>
    <g id="ytick_2">
     <g id="line2d_13">
      <g>
       <use xlink:href="#mcc29693ef1" x="57.539375" y="152.275529" style="stroke: #000000; stroke-width: 0.8"/>
      </g>
     </g>
     <g id="text_2">
      <text style="font: 12px 'Arial', sans-serif; text-anchor: end" x="50.539375" y="156.570217" transform="rotate(-0 50.539375 156.570217)">10</text>
     </g>
    </g>
    <g id="ytick_3">
     <g id="line2d_14">
      <g>
       <use xlink:href="#mcc29693ef1" x="57.539375" y="114.371671" style="stroke: #000000; stroke-width: 0.8"/>
      </g>
     </g>
     <g id="text_3">
      <text style="font: 12px 'Arial', sans-serif; text-anchor: end" x="50.539375" y="118.666359" transform="rotate(-0 50.539375 118.666359)">20</text>
     </g>
    </g>
    <g id="ytick_4">
     <g id="line2d_15">
      <g>
       <use xlink:href="#mcc29693ef1" x="57.539375" y="76.467813" style="stroke: #000000; stroke-width: 0.8"/>
      </g>
     </g>
     <g id="text_4">
      <text style="font: 12px 'Arial', sans-serif; text-anchor: end" x="50.539375" y="80.762501" transform="rotate(-0 50.539375 80.762501)">30</text>
     </g>
    </g>
    <g id="ytick_5">
     <g id="line2d_16">
      <g>
       <use xlink:href="#mcc29693ef1" x="57.539375" y="38.563956" style="stroke: #000000; stroke-width: 0.8"/>
      </g>
     </g>
     <g id="text_5">
      <text style="font: 12px 'Arial', sans-serif; text-anchor: end" x="50.539375" y="42.858643" transform="rotate(-0 50.539375 42.858643)">40</text>
     </g>
    </g>
    <g id="text_6">
     <!-- $P$ [tons-P/yr] -->
     <g transform="translate(30.553125 138.511406) rotate(-90)">
      <text>
       <tspan style="font: oblique 12px 'DejaVu Sans'" x="0" y="-0.25">P</tspan>
       <tspan style="font: 12px 'Arial'" x="7.236328 10.570312 13.904297 17.238281 23.912109 30.585938 36.585938 40.582031 48.585938 51.919922 57.919922 61.916016" y="-0.25"> [tons-P/yr]</tspan>
      </text>
     </g>
    </g>
   </g>
   <g id="line2d_17">
    <path d="M 80.516676 184.514078 
L 84.417532 171.134782 
L 87.940886 176.743515 
L 91.841742 180.032101 
L 95.616765 168.895544 
L 99.517621 158.101494 
L 103.292643 174.797705 
L 107.193499 187.136758 
L 111.094355 186.032263 
L 114.869377 173.04399 
L 118.770233 131.797395 
L 122.545255 172.374188 
L 126.446112 163.834513 
L 130.346968 183.156314 
L 133.870322 177.035239 
L 137.771178 180.28584 
L 141.5462 140.976366 
L 145.447056 156.111787 
L 149.222078 182.744353 
L 153.122934 187.931616 
L 157.023791 188.16892 
L 160.798813 187.998345 
L 164.699669 161.585856 
L 168.474691 151.790348 
L 172.375547 184.792945 
L 176.276403 155.062093 
L 179.925591 164.347596 
L 183.826447 172.283679 
L 187.601469 184.537634 
L 191.502326 184.68746 
L 195.277348 141.018316 
L 199.178204 184.520727 
L 203.07906 177.858704 
L 206.854082 141.432809 
L 210.754938 138.354268 
L 214.52996 144.963438 
L 218.430817 180.26238 
L 222.331673 185.006842 
L 225.855027 179.212037 
L 229.755883 174.790756 
L 233.530905 168.356361 
L 237.431761 178.804016 
L 241.206783 108.370617 
L 245.107639 172.084326 
L 249.008496 174.997624 
L 252.783518 164.350116 
L 256.684374 170.277946 
L 260.459396 154.682926 
L 264.360252 147.820664 
L 268.261108 174.641965 
L 271.784462 177.75833 
L 275.685318 170.014304 
L 279.46034 50.597053 
L 283.361197 167.184509 
L 287.136219 183.201556 
L 291.037075 180.121205 
L 294.937931 168.895217 
L 298.712953 158.814472 
L 302.613809 175.541851 
L 306.388831 168.800212 
L 310.289688 138.547078 
L 314.190544 161.86305 
L 317.713898 166.051593 
L 321.614754 174.566171 
L 325.389776 179.438184 
L 329.290632 144.052703 
L 333.065654 186.055502 
L 336.96651 176.773015 
L 340.867366 164.677249 
L 344.642389 186.946469 
L 348.543245 179.935493 
L 352.318267 81.147819 
L 356.219123 167.801373 
L 360.119979 183.24592 
L 363.769167 185.194041 
L 367.670023 186.935371 
L 371.445045 163.153983 
L 375.345902 180.351171 
L 379.120924 164.338443 
L 383.02178 182.466851 
L 386.922636 187.73292 
L 390.697658 175.178834 
L 394.598514 165.181783 
L 398.373536 166.074723 
L 402.274392 185.156574 
L 406.175249 181.110934 
L 409.698603 186.774971 
L 413.599459 188.009589 
L 417.374481 188.321371 
L 421.275337 175.016132 
L 425.050359 139.276675 
L 428.951215 186.307745 
L 432.852071 187.136121 
L 436.627094 189.37218 
L 440.52795 189.403436 
L 444.302972 172.916167 
L 448.203828 184.646611 
L 452.104684 187.033361 
L 455.628038 181.425806 
L 459.528894 188.743176 
L 463.303916 188.245517 
L 467.204772 188.938527 
L 470.979795 189.551267 
L 474.880651 189.091193 
L 478.781507 163.557834 
L 482.556529 146.729478 
L 486.457385 121.267673 
L 490.232407 164.804233 
L 494.133263 168.318332 
L 498.03412 21.406491 
L 501.557474 160.222457 
L 505.45833 173.317202 
L 509.233352 49.86636 
L 513.134208 167.559453 
L 516.90923 170.33305 
L 520.810086 158.397038 
L 524.710942 172.664956 
L 528.485964 181.361382 
L 532.386821 166.832427 
L 536.161843 138.952951 
" clip-path="url(#p1dc9ec9cde)" style="fill: none; stroke: #1f77b4; stroke-width: 1.5; stroke-linecap: square"/>
   </g>
   <g id="line2d_18">
    <path d="M 80.516676 184.146259 
L 84.417532 177.451311 
L 87.940886 180.560694 
L 91.841742 182.731379 
L 95.616765 187.439695 
L 99.517621 188.993941 
L 103.292643 190.179387 
L 107.193499 190.004678 
L 111.094355 190.179387 
L 114.869377 190.081122 
L 118.770233 184.626463 
L 122.545255 182.871388 
L 126.446112 176.438831 
L 130.346968 184.210931 
L 133.870322 181.345032 
L 137.771178 183.249352 
L 141.5462 175.098639 
L 145.447056 181.701881 
L 149.222078 187.183251 
L 153.122934 189.692779 
L 157.023791 190.179387 
L 160.798813 190.179387 
L 164.699669 188.047793 
L 168.474691 184.507647 
L 172.375547 185.275716 
L 176.276403 179.372961 
L 179.925591 178.714592 
L 183.826447 180.817109 
L 187.601469 185.769147 
L 191.502326 188.249468 
L 195.277348 188.045863 
L 199.178204 189.753801 
L 203.07906 190.179387 
L 206.854082 189.934687 
L 210.754938 181.723981 
L 214.52996 179.249139 
L 218.430817 182.964652 
L 222.331673 185.35653 
L 225.855027 183.578299 
L 229.755883 182.31289 
L 233.530905 184.799712 
L 237.431761 188.21784 
L 241.206783 187.880998 
L 245.107639 186.955482 
L 249.008496 188.928858 
L 252.783518 187.258131 
L 256.684374 185.179588 
L 260.459396 178.554209 
L 264.360252 173.089383 
L 268.261108 180.990699 
L 271.784462 182.153554 
L 275.685318 181.152 
L 279.46034 182.022238 
L 283.361197 175.935899 
L 287.136219 185.9004 
L 291.037075 187.477441 
L 294.937931 187.043981 
L 298.712953 186.519088 
L 302.613809 186.58002 
L 306.388831 185.348139 
L 310.289688 171.876801 
L 314.190544 176.516885 
L 317.713898 176.48053 
L 321.614754 180.576642 
L 325.389776 183.66747 
L 329.290632 181.231613 
L 333.065654 188.304937 
L 336.96651 190.179387 
L 340.867366 188.500244 
L 344.642389 189.834436 
L 348.543245 189.817281 
L 352.318267 181.378802 
L 356.219123 179.176028 
L 360.119979 185.023797 
L 363.769167 185.434642 
L 367.670023 186.475329 
L 371.445045 181.329839 
L 375.345902 187.285907 
L 379.120924 187.952656 
L 383.02178 190.179387 
L 386.922636 190.179387 
L 390.697658 189.622273 
L 394.598514 188.382137 
L 398.373536 183.778962 
L 402.274392 186.114453 
L 406.175249 184.577309 
L 409.698603 187.02379 
L 413.599459 188.272762 
L 417.374481 189.257951 
L 421.275337 190.179387 
L 425.050359 190.179387 
L 428.951215 190.179387 
L 432.852071 190.179387 
L 436.627094 190.179387 
L 440.52795 189.953808 
L 444.302972 187.381999 
L 448.203828 185.96702 
L 452.104684 187.427266 
L 455.628038 185.490688 
L 459.528894 188.570215 
L 463.303916 189.75113 
L 467.204772 190.179387 
L 470.979795 190.179387 
L 474.880651 190.179387 
L 478.781507 190.179387 
L 482.556529 187.86506 
L 486.457385 183.474325 
L 490.232407 181.502923 
L 494.133263 181.279699 
L 498.03412 159.145005 
L 501.557474 176.974076 
L 505.45833 180.834422 
L 509.233352 165.04479 
L 513.134208 174.793544 
L 516.90923 182.142511 
L 520.810086 184.279099 
L 524.710942 187.207831 
L 528.485964 188.18011 
L 532.386821 184.750087 
L 536.161843 174.236875 
" clip-path="url(#p1dc9ec9cde)" style="fill: none; stroke: #2ca02c; stroke-width: 1.5; stroke-linecap: square"/>
   </g>
   <g id="line2d_19">
    <path d="M 80.516676 190.179387 
L 84.417532 190.179387 
L 87.940886 190.179387 
L 91.841742 190.12731 
L 95.616765 189.888999 
L 99.517621 189.797666 
L 103.292643 189.751157 
L 107.193499 189.758083 
L 111.094355 189.726441 
L 114.869377 189.724131 
L 118.770233 189.80481 
L 122.545255 189.951218 
L 126.446112 190.179387 
L 130.346968 190.179387 
L 133.870322 190.179387 
L 137.771178 190.179387 
L 141.5462 190.131605 
L 145.447056 190.034689 
L 149.222078 189.985837 
L 153.122934 189.846993 
L 157.023791 189.772693 
L 160.798813 189.758318 
L 164.699669 189.817115 
L 168.474691 189.922393 
L 172.375547 190.179387 
L 176.276403 190.110471 
L 179.925591 190.179387 
L 183.826447 190.179387 
L 187.601469 190.15914 
L 191.502326 189.995653 
L 195.277348 189.891442 
L 199.178204 189.857279 
L 203.07906 189.813158 
L 206.854082 189.808288 
L 210.754938 189.924531 
L 214.52996 189.985095 
L 218.430817 190.179387 
L 222.331673 190.179387 
L 225.855027 190.179387 
L 229.755883 190.15533 
L 233.530905 190.017045 
L 237.431761 189.932916 
L 241.206783 189.859939 
L 245.107639 189.919412 
L 249.008496 189.829888 
L 252.783518 189.854704 
L 256.684374 189.930679 
L 260.459396 190.045195 
L 264.360252 190.179387 
L 268.261108 190.179387 
L 271.784462 190.179387 
L 275.685318 190.138732 
L 279.46034 189.943885 
L 283.361197 190.196727 
L 287.136219 190.04886 
L 291.037075 189.922486 
L 294.937931 189.876021 
L 298.712953 189.865021 
L 302.613809 189.890098 
L 306.388831 189.89431 
L 310.289688 190.179387 
L 314.190544 190.179387 
L 317.713898 190.179387 
L 321.614754 190.179387 
L 325.389776 190.142788 
L 329.290632 189.988231 
L 333.065654 189.954275 
L 336.96651 189.801478 
L 340.867366 189.838659 
L 344.642389 189.809737 
L 348.543245 189.792679 
L 352.318267 189.916858 
L 356.219123 190.179387 
L 360.119979 190.179387 
L 363.769167 190.179387 
L 367.670023 190.179387 
L 371.445045 190.125035 
L 375.345902 189.98204 
L 379.120924 189.912584 
L 383.02178 189.814967 
L 386.922636 189.803894 
L 390.697658 189.824117 
L 394.598514 189.847821 
L 398.373536 189.960288 
L 402.274392 190.179387 
L 406.175249 190.179387 
L 409.698603 190.179387 
L 413.599459 190.140425 
L 417.374481 190.00954 
L 421.275337 189.871541 
L 425.050359 189.855009 
L 428.951215 189.83352 
L 432.852071 189.817129 
L 436.627094 189.807842 
L 440.52795 189.8491 
L 444.302972 189.909524 
L 448.203828 190.179387 
L 452.104684 190.179387 
L 455.628038 190.179387 
L 459.528894 190.148688 
L 463.303916 189.964494 
L 467.204772 189.891064 
L 470.979795 189.87423 
L 474.880651 189.85273 
L 478.781507 189.841002 
L 482.556529 189.881297 
L 486.457385 189.917466 
L 490.232407 190.067852 
L 494.133263 190.179387 
L 498.03412 190.179387 
L 501.557474 190.179387 
L 505.45833 190.179387 
L 509.233352 190.135117 
L 513.134208 190.336321 
L 516.90923 190.116605 
L 520.810086 189.9411 
L 524.710942 189.870883 
L 528.485964 189.846292 
L 532.386821 189.903378 
L 536.161843 190.043647 
" clip-path="url(#p1dc9ec9cde)" style="fill: none; stroke: #bf00bf; stroke-width: 1.5; stroke-linecap: square"/>
   </g>
   <g id="line2d_20">
    <path d="M 80.516676 168.965638 
L 84.417532 169.514581 
L 87.940886 169.844221 
L 91.841742 130.393824 
L 95.616765 130.302613 
L 99.517621 130.841683 
L 103.292643 130.07888 
L 107.193499 131.341563 
L 111.094355 131.851995 
L 114.869377 133.543175 
L 118.770233 136.33576 
L 122.545255 141.647102 
L 126.446112 170.581753 
L 130.346968 170.759633 
L 133.870322 171.181558 
L 137.771178 171.555158 
L 141.5462 132.070107 
L 145.447056 131.666097 
L 149.222078 132.63445 
L 153.122934 133.000085 
L 157.023791 133.915825 
L 160.798813 134.25449 
L 164.699669 137.362678 
L 168.474691 141.900885 
L 172.375547 172.327974 
L 176.276403 132.384234 
L 179.925591 173.564866 
L 183.826447 173.622034 
L 187.601469 134.502048 
L 191.502326 134.886848 
L 195.277348 135.778713 
L 199.178204 134.394783 
L 203.07906 134.799366 
L 206.854082 136.159135 
L 210.754938 138.725449 
L 214.52996 142.146003 
L 218.430817 172.528558 
L 222.331673 172.908785 
L 225.855027 173.29753 
L 229.755883 135.499474 
L 233.530905 134.520933 
L 237.431761 135.104644 
L 241.206783 135.890002 
L 245.107639 134.917419 
L 249.008496 134.991509 
L 252.783518 137.093864 
L 256.684374 141.0365 
L 260.459396 152.992311 
L 264.360252 172.833323 
L 268.261108 172.631805 
L 271.784462 172.889089 
L 275.685318 133.346541 
L 279.46034 132.974935 
L 283.361197 131.127871 
L 287.136219 131.398211 
L 291.037075 132.410952 
L 294.937931 133.961297 
L 298.712953 135.304549 
L 302.613809 137.126694 
L 306.388831 139.354369 
L 310.289688 172.284876 
L 314.190544 171.89227 
L 317.713898 171.975742 
L 321.614754 172.173497 
L 325.389776 132.598223 
L 329.290632 133.494179 
L 333.065654 133.592837 
L 336.96651 133.352712 
L 340.867366 135.296615 
L 344.642389 135.795946 
L 348.543245 137.521237 
L 352.318267 143.131912 
L 356.219123 171.810289 
L 360.119979 171.988198 
L 363.769167 172.378748 
L 367.670023 172.8254 
L 371.445045 133.393352 
L 375.345902 133.361294 
L 379.120924 134.747125 
L 383.02178 133.977661 
L 386.922636 135.308053 
L 390.697658 137.627403 
L 394.598514 139.727772 
L 398.373536 145.684937 
L 402.274392 174.333797 
L 406.175249 174.712477 
L 409.698603 174.988179 
L 413.599459 136.050754 
L 417.374481 136.995171 
L 421.275337 136.598845 
L 425.050359 136.701922 
L 428.951215 135.725018 
L 432.852071 135.898586 
L 436.627094 137.37458 
L 440.52795 140.482531 
L 444.302972 144.913841 
L 448.203828 175.728204 
L 452.104684 176.062195 
L 455.628038 176.377477 
L 459.528894 136.754601 
L 463.303916 137.092499 
L 467.204772 137.503369 
L 470.979795 137.575716 
L 474.880651 136.598323 
L 478.781507 137.876885 
L 482.556529 139.595842 
L 486.457385 140.984571 
L 490.232407 153.098866 
L 494.133263 173.775305 
L 498.03412 173.862873 
L 501.557474 171.0733 
L 505.45833 171.133188 
L 509.233352 131.031452 
L 513.134208 128.579042 
L 516.90923 129.438161 
L 520.810086 129.668639 
L 524.710942 130.088357 
L 528.485964 131.442823 
L 532.386821 135.126774 
L 536.161843 147.028301 
" clip-path="url(#p1dc9ec9cde)" style="fill: none; stroke: #ffbe00; stroke-width: 1.5; stroke-linecap: square"/>
   </g>
   <g id="line2d_21">
    <path d="M 80.516676 168.965638 
L 84.417532 169.514581 
L 87.940886 169.844221 
L 91.841742 170.264368 
L 95.616765 170.688137 
L 99.517621 170.712227 
L 103.292643 169.949423 
L 107.193499 170.072743 
L 111.094355 169.968394 
L 114.869377 170.363809 
L 118.770233 170.434481 
L 122.545255 169.620108 
L 126.446112 170.581753 
L 130.346968 170.759633 
L 133.870322 171.181558 
L 137.771178 171.555158 
L 141.5462 171.94065 
L 145.447056 171.536641 
L 149.222078 171.365631 
L 153.122934 171.731265 
L 157.023791 172.032224 
L 160.798813 171.73244 
L 164.699669 172.146175 
L 168.474691 171.9387 
L 172.375547 172.327974 
L 176.276403 172.769757 
L 179.925591 173.564866 
L 183.826447 173.622034 
L 187.601469 173.819544 
L 191.502326 174.204344 
L 195.277348 174.509893 
L 199.178204 173.712279 
L 203.07906 173.530546 
L 206.854082 173.637085 
L 210.754938 172.82417 
L 214.52996 172.183818 
L 218.430817 172.528558 
L 222.331673 172.908785 
L 225.855027 173.29753 
L 229.755883 173.615873 
L 233.530905 173.838428 
L 237.431761 173.835824 
L 241.206783 174.006401 
L 245.107639 172.395369 
L 249.008496 172.46946 
L 252.783518 172.562473 
L 256.684374 172.42789 
L 260.459396 172.49804 
L 264.360252 172.833323 
L 268.261108 172.631805 
L 271.784462 172.889089 
L 275.685318 173.217085 
L 279.46034 173.360459 
L 283.361197 170.445367 
L 287.136219 170.715706 
L 291.037075 171.142132 
L 294.937931 171.439247 
L 298.712953 171.453804 
L 302.613809 171.225416 
L 306.388831 171.420265 
L 310.289688 172.284876 
L 314.190544 171.89227 
L 317.713898 171.975742 
L 321.614754 172.173497 
L 325.389776 172.468767 
L 329.290632 172.811674 
L 333.065654 172.324018 
L 336.96651 172.670207 
L 340.867366 172.774565 
L 344.642389 172.616581 
L 348.543245 172.989846 
L 352.318267 173.169728 
L 356.219123 171.810289 
L 360.119979 171.988198 
L 363.769167 172.378748 
L 367.670023 172.8254 
L 371.445045 173.263896 
L 375.345902 173.231838 
L 379.120924 173.478305 
L 383.02178 173.295157 
L 386.922636 173.424452 
L 390.697658 173.776658 
L 394.598514 173.826494 
L 398.373536 173.657942 
L 402.274392 174.333797 
L 406.175249 174.712477 
L 409.698603 174.988179 
L 413.599459 175.36825 
L 417.374481 175.726351 
L 421.275337 175.916341 
L 425.050359 175.433102 
L 428.951215 174.456198 
L 432.852071 174.014985 
L 436.627094 174.195215 
L 440.52795 174.581252 
L 444.302972 174.951656 
L 448.203828 175.728204 
L 452.104684 176.062195 
L 455.628038 176.377477 
L 459.528894 176.625145 
L 463.303916 176.963043 
L 467.204772 176.820865 
L 470.979795 176.306896 
L 474.880651 175.329503 
L 478.781507 175.354836 
L 482.556529 175.06445 
L 486.457385 174.402596 
L 490.232407 173.259716 
L 494.133263 173.775305 
L 498.03412 173.862873 
L 501.557474 171.0733 
L 505.45833 171.133188 
L 509.233352 171.416976 
L 513.134208 168.964566 
L 516.90923 169.308704 
L 520.810086 169.539183 
L 524.710942 169.405852 
L 528.485964 169.559221 
L 532.386821 169.910271 
L 536.161843 169.968152 
" clip-path="url(#p1dc9ec9cde)" style="fill: none; stroke: #f07d32; stroke-width: 1.5; stroke-linecap: square"/>
   </g>
   <g id="line2d_22">
    <path d="M 80.516676 190.179387 
L 84.417532 190.179387 
L 87.940886 190.179387 
L 91.841742 150.308843 
L 95.616765 149.793863 
L 99.517621 150.308843 
L 103.292643 150.308843 
L 107.193499 151.448206 
L 111.094355 152.062988 
L 114.869377 153.358752 
L 118.770233 156.080665 
L 122.545255 162.206382 
L 126.446112 190.179387 
L 130.346968 190.179387 
L 133.870322 190.179387 
L 137.771178 190.179387 
L 141.5462 150.308843 
L 145.447056 150.308843 
L 149.222078 151.448206 
L 153.122934 151.448206 
L 157.023791 152.062988 
L 160.798813 152.701437 
L 164.699669 155.39589 
L 168.474691 160.141572 
L 172.375547 190.179387 
L 176.276403 149.793863 
L 179.925591 190.179387 
L 183.826447 190.179387 
L 187.601469 150.861891 
L 191.502326 150.861891 
L 195.277348 151.448206 
L 199.178204 150.861891 
L 203.07906 151.448206 
L 206.854082 152.701437 
L 210.754938 156.080665 
L 214.52996 160.141572 
L 218.430817 190.179387 
L 222.331673 190.179387 
L 225.855027 190.179387 
L 229.755883 152.062988 
L 233.530905 150.861891 
L 237.431761 151.448206 
L 241.206783 152.062988 
L 245.107639 152.701437 
L 249.008496 152.701437 
L 252.783518 154.710778 
L 256.684374 158.787997 
L 260.459396 170.673658 
L 264.360252 190.179387 
L 268.261108 190.179387 
L 271.784462 190.179387 
L 275.685318 150.308843 
L 279.46034 149.793863 
L 283.361197 150.861891 
L 287.136219 150.861891 
L 291.037075 151.448206 
L 294.937931 152.701437 
L 298.712953 154.030132 
L 302.613809 156.080665 
L 306.388831 158.113491 
L 310.289688 190.179387 
L 314.190544 190.179387 
L 317.713898 190.179387 
L 321.614754 190.179387 
L 325.389776 150.308843 
L 329.290632 150.861891 
L 333.065654 151.448206 
L 336.96651 150.861891 
L 340.867366 152.701437 
L 344.642389 153.358752 
L 348.543245 154.710778 
L 352.318267 160.141572 
L 356.219123 190.179387 
L 360.119979 190.179387 
L 363.769167 190.179387 
L 367.670023 190.179387 
L 371.445045 150.308843 
L 375.345902 150.308843 
L 379.120924 151.448206 
L 383.02178 150.861891 
L 386.922636 152.062988 
L 390.697658 154.030132 
L 394.598514 156.080665 
L 398.373536 162.206382 
L 402.274392 190.179387 
L 406.175249 190.179387 
L 409.698603 190.179387 
L 413.599459 150.861891 
L 417.374481 151.448206 
L 421.275337 150.861891 
L 425.050359 151.448206 
L 428.951215 151.448206 
L 432.852071 152.062988 
L 436.627094 153.358752 
L 440.52795 156.080665 
L 444.302972 160.141572 
L 448.203828 190.179387 
L 452.104684 190.179387 
L 455.628038 190.179387 
L 459.528894 150.308843 
L 463.303916 150.308843 
L 467.204772 150.861891 
L 470.979795 151.448206 
L 474.880651 151.448206 
L 478.781507 152.701437 
L 482.556529 154.710778 
L 486.457385 156.761362 
L 490.232407 170.018538 
L 494.133263 190.179387 
L 498.03412 190.179387 
L 501.557474 190.179387 
L 505.45833 190.179387 
L 509.233352 149.793863 
L 513.134208 149.793863 
L 516.90923 150.308843 
L 520.810086 150.308843 
L 524.710942 150.861891 
L 528.485964 152.062988 
L 532.386821 155.39589 
L 536.161843 167.239536 
" clip-path="url(#p1dc9ec9cde)" style="fill: none; stroke: #ff0000; stroke-width: 1.5; stroke-linecap: square"/>
   </g>
   <g id="patch_3">
    <path d="M 57.539375 198.782812 
L 57.539375 12.96 
" style="fill: none; stroke: #000000; stroke-width: 0.8; stroke-linejoin: miter; stroke-linecap: square"/>
   </g>
   <g id="patch_4">
    <path d="M 563.04 198.782812 
L 563.04 12.96 
" style="fill: none; stroke: #000000; stroke-width: 0.8; stroke-linejoin: miter; stroke-linecap: square"/>
   </g>
   <g id="patch_5">
    <path d="M 57.539375 198.782812 
L 563.04 198.782812 
" style="fill: none; stroke: #000000; stroke-width: 0.8; stroke-linejoin: miter; stroke-linecap: square"/>
   </g>
   <g id="patch_6">
    <path d="M 57.539375 12.96 
L 563.04 12.96 
" style="fill: none; stroke: #000000; stroke-width: 0.8; stroke-linejoin: miter; stroke-linecap: square"/>
   </g>
   <g id="legend_1">
    <g id="patch_7">
     <path d="M 65.939375 124.40625 
L 151.619375 124.40625 
Q 154.019375 124.40625 154.019375 122.00625 
L 154.019375 21.36 
Q 154.019375 18.96 151.619375 18.96 
L 65.939375 18.96 
Q 63.539375 18.96 63.539375 21.36 
L 63.539375 122.00625 
Q 63.539375 124.40625 65.939375 124.40625 
z
" style="fill: #ffffff; opacity: 0.8; stroke: #cccccc; stroke-linejoin: miter"/>
    </g>
    <g id="line2d_23">
     <path d="M 68.339375 28.149375 
L 80.339375 28.149375 
L 92.339375 28.149375 
" style="fill: none; stroke: #1f77b4; stroke-width: 1.5; stroke-linecap: square"/>
    </g>
    <g id="text_7">
     <!-- $P_{\rm in}$ -->
     <g transform="translate(101.939375 32.349375)">
      <text>
       <tspan style="font: oblique 12px 'DejaVu Sans'" x="0" y="-0.25">P</tspan>
       <tspan style="font: 8.4px 'DejaVu Sans'" x="7.236328 9.570117" y="1.71875">in</tspan>
      </text>
     </g>
    </g>
    <g id="line2d_24">
     <path d="M 68.339375 45.12375 
L 80.339375 45.12375 
L 92.339375 45.12375 
" style="fill: none; stroke: #2ca02c; stroke-width: 1.5; stroke-linecap: square"/>
    </g>
    <g id="text_8">
     <!-- $P_{\rm out}$ -->
     <g transform="translate(101.939375 49.32375)">
      <text>
       <tspan style="font: oblique 12px 'DejaVu Sans'" x="0" y="-0.25">P</tspan>
       <tspan style="font: 8.4px 'DejaVu Sans'" x="7.236328 12.375586 17.699414" y="1.71875">out</tspan>
      </text>
     </g>
    </g>
    <g id="line2d_25">
     <path d="M 68.339375 62.098125 
L 80.339375 62.098125 
L 92.339375 62.098125 
" style="fill: none; stroke: #bf00bf; stroke-width: 1.5; stroke-linecap: square"/>
    </g>
    <g id="text_9">
     <!-- $P_{z}$ -->
     <g transform="translate(101.939375 66.298125)">
      <text>
       <tspan style="font: oblique 12px 'DejaVu Sans'" x="0" y="-0.25">P</tspan>
       <tspan style="font: oblique 8.4px 'DejaVu Sans'" x="7.236328" y="1.71875">z</tspan>
      </text>
     </g>
    </g>
    <g id="line2d_26">
     <path d="M 68.339375 79.0725 
L 80.339375 79.0725 
L 92.339375 79.0725 
" style="fill: none; stroke: #ffbe00; stroke-width: 1.5; stroke-linecap: square"/>
    </g>
    <g id="text_10">
     <!-- $P_{\rm GrossSed}$ -->
     <g transform="translate(101.939375 83.2725)">
      <text>
       <tspan style="font: oblique 12px 'DejaVu Sans'" x="0" y="-0.25">P</tspan>
       <tspan style="font: 8.4px 'DejaVu Sans'" x="7.236328 13.745508 17.199023 22.338281 26.714648 31.091016 36.423047 41.591016" y="1.71875">GrossSed</tspan>
      </text>
     </g>
    </g>
    <g id="line2d_27">
     <path d="M 68.339375 96.046875 
L 80.339375 96.046875 
L 92.339375 96.046875 
" style="fill: none; stroke: #f07d32; stroke-width: 1.5; stroke-linecap: square"/>
    </g>
    <g id="text_11">
     <!-- $P_{\rm NetSed}$ -->
     <g transform="translate(101.939375 100.246875)">
      <text>
       <tspan style="font: oblique 12px 'DejaVu Sans'" x="0" y="-0.25">P</tspan>
       <tspan style="font: 8.4px 'DejaVu Sans'" x="7.236328 13.519922 18.687891 21.981445 27.313477 32.481445" y="1.71875">NetSed</tspan>
      </text>
     </g>
    </g>
    <g id="line2d_28">
     <path d="M 68.339375 113.02125 
L 80.339375 113.02125 
L 92.339375 113.02125 
" style="fill: none; stroke: #ff0000; stroke-width: 1.5; stroke-linecap: square"/>
    </g>
    <g id="text_12">
     <!-- $P_{\rm remob}$ -->
     <g transform="translate(101.939375 117.22125)">
      <text>
       <tspan style="font: oblique 12px 'DejaVu Sans'" x="0" y="-0.25">P</tspan>
       <tspan style="font: 8.4px 'DejaVu Sans'" x="7.236328 10.689844 15.857813 24.04043 29.179688" y="1.71875">remob</tspan>
      </text>
     </g>
    </g>
   </g>
  </g>
  <g id="axes_2">
   <g id="patch_8">
    <path d="M 57.539375 401.065625 
L 563.04 401.065625 
L 563.04 215.242813 
L 57.539375 215.242813 
z
" style="fill: #ffffff"/>
   </g>
   <g id="matplotlib.axis_3">
    <g id="xtick_12">
     <g id="line2d_29">
      <g>
       <use xlink:href="#m35fe547c21" x="80.516676" y="401.065625" style="stroke: #000000; stroke-width: 0.8"/>
      </g>
     </g>
     <g id="text_13">
      <text style="font: 12px 'Arial', sans-serif; text-anchor: middle" x="80.516676" y="416.655" transform="rotate(-0 80.516676 416.655)">1990</text>
     </g>
    </g>
    <g id="xtick_13">
     <g id="line2d_30">
      <g>
       <use xlink:href="#m35fe547c21" x="126.446112" y="401.065625" style="stroke: #000000; stroke-width: 0.8"/>
      </g>
     </g>
     <g id="text_14">
      <text style="font: 12px 'Arial', sans-serif; text-anchor: middle" x="126.446112" y="416.655" transform="rotate(-0 126.446112 416.655)">1991</text>
     </g>
    </g>
    <g id="xtick_14">
     <g id="line2d_31">
      <g>
       <use xlink:href="#m35fe547c21" x="172.375547" y="401.065625" style="stroke: #000000; stroke-width: 0.8"/>
      </g>
     </g>
     <g id="text_15">
      <text style="font: 12px 'Arial', sans-serif; text-anchor: middle" x="172.375547" y="416.655" transform="rotate(-0 172.375547 416.655)">1992</text>
     </g>
    </g>
    <g id="xtick_15">
     <g id="line2d_32">
      <g>
       <use xlink:href="#m35fe547c21" x="218.430817" y="401.065625" style="stroke: #000000; stroke-width: 0.8"/>
      </g>
     </g>
     <g id="text_16">
      <text style="font: 12px 'Arial', sans-serif; text-anchor: middle" x="218.430817" y="416.655" transform="rotate(-0 218.430817 416.655)">1993</text>
     </g>
    </g>
    <g id="xtick_16">
     <g id="line2d_33">
      <g>
       <use xlink:href="#m35fe547c21" x="264.360252" y="401.065625" style="stroke: #000000; stroke-width: 0.8"/>
      </g>
     </g>
     <g id="text_17">
      <text style="font: 12px 'Arial', sans-serif; text-anchor: middle" x="264.360252" y="416.655" transform="rotate(-0 264.360252 416.655)">1994</text>
     </g>
    </g>
    <g id="xtick_17">
     <g id="line2d_34">
      <g>
       <use xlink:href="#m35fe547c21" x="310.289688" y="401.065625" style="stroke: #000000; stroke-width: 0.8"/>
      </g>
     </g>
     <g id="text_18">
      <text style="font: 12px 'Arial', sans-serif; text-anchor: middle" x="310.289688" y="416.655" transform="rotate(-0 310.289688 416.655)">1995</text>
     </g>
    </g>
    <g id="xtick_18">
     <g id="line2d_35">
      <g>
       <use xlink:href="#m35fe547c21" x="356.219123" y="401.065625" style="stroke: #000000; stroke-width: 0.8"/>
      </g>
     </g>
     <g id="text_19">
      <text style="font: 12px 'Arial', sans-serif; text-anchor: middle" x="356.219123" y="416.655" transform="rotate(-0 356.219123 416.655)">1996</text>
     </g>
    </g>
    <g id="xtick_19">
     <g id="line2d_36">
      <g>
       <use xlink:href="#m35fe547c21" x="402.274392" y="401.065625" style="stroke: #000000; stroke-width: 0.8"/>
      </g>
     </g>
     <g id="text_20">
      <text style="font: 12px 'Arial', sans-serif; text-anchor: middle" x="402.274392" y="416.655" transform="rotate(-0 402.274392 416.655)">1997</text>
     </g>
    </g>
    <g id="xtick_20">
     <g id="line2d_37">
      <g>
       <use xlink:href="#m35fe547c21" x="448.203828" y="401.065625" style="stroke: #000000; stroke-width: 0.8"/>
      </g>
     </g>
     <g id="text_21">
      <text style="font: 12px 'Arial', sans-serif; text-anchor: middle" x="448.203828" y="416.655" transform="rotate(-0 448.203828 416.655)">1998</text>
     </g>
    </g>
    <g id="xtick_21">
     <g id="line2d_38">
      <g>
       <use xlink:href="#m35fe547c21" x="494.133263" y="401.065625" style="stroke: #000000; stroke-width: 0.8"/>
      </g>
     </g>
     <g id="text_22">
      <text style="font: 12px 'Arial', sans-serif; text-anchor: middle" x="494.133263" y="416.655" transform="rotate(-0 494.133263 416.655)">1999</text>
     </g>
    </g>
    <g id="xtick_22">
     <g id="line2d_39">
      <g>
       <use xlink:href="#m35fe547c21" x="540.062699" y="401.065625" style="stroke: #000000; stroke-width: 0.8"/>
      </g>
     </g>
     <g id="text_23">
      <text style="font: 12px 'Arial', sans-serif; text-anchor: middle" x="540.062699" y="416.655" transform="rotate(-0 540.062699 416.655)">2000</text>
     </g>
    </g>
   </g>
   <g id="matplotlib.axis_4">
    <g id="ytick_6">
     <g id="line2d_40">
      <g>
       <use xlink:href="#mcc29693ef1" x="57.539375" y="392.619134" style="stroke: #000000; stroke-width: 0.8"/>
      </g>
     </g>
     <g id="text_24">
      <text style="font: 12px 'Arial', sans-serif; text-anchor: end" x="50.539375" y="396.913821" transform="rotate(-0 50.539375 396.913821)">0</text>
     </g>
    </g>
    <g id="ytick_7">
     <g id="line2d_41">
      <g>
       <use xlink:href="#mcc29693ef1" x="57.539375" y="365.81703" style="stroke: #000000; stroke-width: 0.8"/>
      </g>
     </g>
     <g id="text_25">
      <text style="font: 12px 'Arial', sans-serif; text-anchor: end" x="50.539375" y="370.111718" transform="rotate(-0 50.539375 370.111718)">25</text>
     </g>
    </g>
    <g id="ytick_8">
     <g id="line2d_42">
      <g>
       <use xlink:href="#mcc29693ef1" x="57.539375" y="339.014927" style="stroke: #000000; stroke-width: 0.8"/>
      </g>
     </g>
     <g id="text_26">
      <text style="font: 12px 'Arial', sans-serif; text-anchor: end" x="50.539375" y="343.309614" transform="rotate(-0 50.539375 343.309614)">50</text>
     </g>
    </g>
    <g id="ytick_9">
     <g id="line2d_43">
      <g>
       <use xlink:href="#mcc29693ef1" x="57.539375" y="312.212823" style="stroke: #000000; stroke-width: 0.8"/>
      </g>
     </g>
     <g id="text_27">
      <text style="font: 12px 'Arial', sans-serif; text-anchor: end" x="50.539375" y="316.50751" transform="rotate(-0 50.539375 316.50751)">75</text>
     </g>
    </g>
    <g id="ytick_10">
     <g id="line2d_44">
      <g>
       <use xlink:href="#mcc29693ef1" x="57.539375" y="285.410719" style="stroke: #000000; stroke-width: 0.8"/>
      </g>
     </g>
     <g id="text_28">
      <text style="font: 12px 'Arial', sans-serif; text-anchor: end" x="50.539375" y="289.705407" transform="rotate(-0 50.539375 289.705407)">100</text>
     </g>
    </g>
    <g id="ytick_11">
     <g id="line2d_45">
      <g>
       <use xlink:href="#mcc29693ef1" x="57.539375" y="258.608616" style="stroke: #000000; stroke-width: 0.8"/>
      </g>
     </g>
     <g id="text_29">
      <text style="font: 12px 'Arial', sans-serif; text-anchor: end" x="50.539375" y="262.903303" transform="rotate(-0 50.539375 262.903303)">125</text>
     </g>
    </g>
    <g id="ytick_12">
     <g id="line2d_46">
      <g>
       <use xlink:href="#mcc29693ef1" x="57.539375" y="231.806512" style="stroke: #000000; stroke-width: 0.8"/>
      </g>
     </g>
     <g id="text_30">
      <text style="font: 12px 'Arial', sans-serif; text-anchor: end" x="50.539375" y="236.1012" transform="rotate(-0 50.539375 236.1012)">150</text>
     </g>
    </g>
    <g id="text_31">
     <!-- $TP$ [mg-P/m$^3$] -->
     <g transform="translate(23.88 344.334219) rotate(-90)">
      <text>
       <tspan style="font: oblique 12px 'DejaVu Sans'" x="0 7.330078" y="-0.171875">TP</tspan>
       <tspan style="font: 12px 'Arial'" x="14.566406 17.900391 21.234375 31.230469 37.904297 41.900391 49.904297 53.238281 69.02168" y="-0.171875"> [mg-P/m]</tspan>
       <tspan style="font: 8.4px 'DejaVu Sans'" x="63.349219" y="-4.765625">3</tspan>
      </text>
     </g>
    </g>
   </g>
   <g id="line2d_47">
    <path d="M 80.516676 277.695543 
L 84.417532 280.66939 
L 87.940886 282.455186 
L 91.841742 298.05906 
L 95.616765 362.841872 
L 99.517621 384.848806 
L 103.292643 392.619134 
L 107.193499 387.450459 
L 111.094355 392.619134 
L 114.869377 391.372566 
L 118.770233 366.793204 
L 122.545255 322.343326 
L 126.446112 286.450704 
L 130.346968 287.414353 
L 133.870322 289.70009 
L 137.771178 291.724038 
L 141.5462 306.040855 
L 145.447056 328.655272 
L 149.222078 338.364043 
L 153.122934 374.538912 
L 157.023791 392.619134 
L 160.798813 392.619134 
L 164.699669 374.875622 
L 168.474691 343.157176 
L 172.375547 295.910695 
L 176.276403 316.296633 
L 179.925591 302.61145 
L 183.826447 302.92115 
L 187.601469 309.07317 
L 191.502326 352.192744 
L 195.277348 378.645148 
L 199.178204 384.258501 
L 203.07906 392.619134 
L 206.854082 391.077575 
L 210.754938 353.805365 
L 214.52996 332.443316 
L 218.430817 296.997344 
L 222.331673 299.057192 
L 225.855027 301.16318 
L 229.755883 308.70314 
L 233.530905 344.841023 
L 237.431761 364.779316 
L 241.206783 382.224109 
L 245.107639 357.977176 
L 249.008496 379.625786 
L 252.783518 370.159344 
L 256.684374 346.244562 
L 260.459396 315.200824 
L 264.360252 298.648383 
L 268.261108 297.556675 
L 271.784462 298.950491 
L 275.685318 311.131944 
L 279.46034 362.989009 
L 283.361197 281.359493 
L 287.136219 319.938384 
L 291.037075 352.755114 
L 294.937931 363.095646 
L 298.712953 363.127606 
L 302.613809 352.603017 
L 306.388831 349.237813 
L 310.289688 295.677219 
L 314.190544 293.550312 
L 317.713898 294.002513 
L 321.614754 295.073834 
L 325.389776 306.039886 
L 329.290632 346.51076 
L 333.065654 351.329006 
L 336.96651 392.619134 
L 340.867366 379.197021 
L 344.642389 383.625441 
L 348.543245 386.415731 
L 352.318267 350.889196 
L 356.219123 293.106187 
L 360.119979 294.069991 
L 363.769167 296.18576 
L 367.670023 298.605459 
L 371.445045 314.890805 
L 375.345902 351.312933 
L 379.120924 367.849755 
L 383.02178 392.619134 
L 386.922636 392.619134 
L 390.697658 385.073465 
L 394.598514 375.852019 
L 398.373536 342.584089 
L 402.274392 306.777066 
L 406.175249 308.828529 
L 409.698603 310.322123 
L 413.599459 322.16048 
L 417.374481 356.150503 
L 421.275337 392.619134 
L 425.050359 392.619134 
L 428.951215 392.619134 
L 432.852071 392.619134 
L 436.627094 392.619134 
L 440.52795 379.663781 
L 444.302972 361.951032 
L 448.203828 314.331143 
L 452.104684 316.140507 
L 455.628038 317.848517 
L 459.528894 327.046693 
L 463.303916 376.016972 
L 467.204772 392.619134 
L 470.979795 392.619134 
L 474.880651 392.619134 
L 478.781507 392.619134 
L 482.556529 377.736159 
L 486.457385 362.815397 
L 490.232407 316.641477 
L 494.133263 303.751485 
L 498.03412 304.225876 
L 501.557474 289.113615 
L 505.45833 289.43805 
L 509.233352 302.533344 
L 513.134208 236.717222 
L 516.90923 295.621338 
L 520.810086 341.785888 
L 524.710942 357.514325 
L 528.485964 361.430758 
L 532.386821 343.725488 
L 536.161843 304.139041 
L 540.062699 284.191932 
" clip-path="url(#p50b52d180a)" style="fill: none; stroke: #ffa500; stroke-width: 1.5; stroke-linecap: square"/>
   </g>
   <g id="line2d_48">
    <defs>
     <path id="m962772a9a8" d="M 0 1.25 
C 0.331504 1.25 0.649475 1.118292 0.883883 0.883883 
C 1.118292 0.649475 1.25 0.331504 1.25 0 
C 1.25 -0.331504 1.118292 -0.649475 0.883883 -0.883883 
C 0.649475 -1.118292 0.331504 -1.25 0 -1.25 
C -0.331504 -1.25 -0.649475 -1.118292 -0.883883 -0.883883 
C -1.118292 -0.649475 -1.25 -0.331504 -1.25 0 
C -1.25 0.331504 -1.118292 0.649475 -0.883883 0.883883 
C -0.649475 1.118292 -0.331504 1.25 0 1.25 
z
" style="stroke: #ffa500"/>
    </defs>
    <g clip-path="url(#p50b52d180a)">
     <use xlink:href="#m962772a9a8" x="80.516676" y="277.695543" style="fill: #ffa500; stroke: #ffa500"/>
     <use xlink:href="#m962772a9a8" x="84.417532" y="276.068272" style="fill: #ffa500; stroke: #ffa500"/>
     <use xlink:href="#m962772a9a8" x="87.940886" y="281.275538" style="fill: #ffa500; stroke: #ffa500"/>
     <use xlink:href="#m962772a9a8" x="91.841742" y="301.83658" style="fill: #ffa500; stroke: #ffa500"/>
     <use xlink:href="#m962772a9a8" x="95.616765" y="295.021188" style="fill: #ffa500; stroke: #ffa500"/>
     <use xlink:href="#m962772a9a8" x="99.517621" y="349.9655" style="fill: #ffa500; stroke: #ffa500"/>
     <use xlink:href="#m962772a9a8" x="103.292643" y="346.634382" style="fill: #ffa500; stroke: #ffa500"/>
     <use xlink:href="#m962772a9a8" x="107.193499" y="375.38921" style="fill: #ffa500; stroke: #ffa500"/>
     <use xlink:href="#m962772a9a8" x="111.094355" y="372.428216" style="fill: #ffa500; stroke: #ffa500"/>
     <use xlink:href="#m962772a9a8" x="114.869377" y="365.683019" style="fill: #ffa500; stroke: #ffa500"/>
     <use xlink:href="#m962772a9a8" x="118.770233" y="331.9657" style="fill: #ffa500; stroke: #ffa500"/>
     <use xlink:href="#m962772a9a8" x="122.545255" y="287.988219" style="fill: #ffa500; stroke: #ffa500"/>
     <use xlink:href="#m962772a9a8" x="126.446112" y="269.027037" style="fill: #ffa500; stroke: #ffa500"/>
     <use xlink:href="#m962772a9a8" x="130.346968" y="266.840691" style="fill: #ffa500; stroke: #ffa500"/>
     <use xlink:href="#m962772a9a8" x="133.870322" y="269.963956" style="fill: #ffa500; stroke: #ffa500"/>
     <use xlink:href="#m962772a9a8" x="137.771178" y="271.93309" style="fill: #ffa500; stroke: #ffa500"/>
     <use xlink:href="#m962772a9a8" x="141.5462" y="303.010767" style="fill: #ffa500; stroke: #ffa500"/>
     <use xlink:href="#m962772a9a8" x="145.447056" y="366.787011" style="fill: #ffa500; stroke: #ffa500"/>
     <use xlink:href="#m962772a9a8" x="149.222078" y="361.171332" style="fill: #ffa500; stroke: #ffa500"/>
     <use xlink:href="#m962772a9a8" x="153.122934" y="362.243416" style="fill: #ffa500; stroke: #ffa500"/>
     <use xlink:href="#m962772a9a8" x="157.023791" y="380.494372" style="fill: #ffa500; stroke: #ffa500"/>
     <use xlink:href="#m962772a9a8" x="160.798813" y="378.299153" style="fill: #ffa500; stroke: #ffa500"/>
     <use xlink:href="#m962772a9a8" x="164.699669" y="353.612501" style="fill: #ffa500; stroke: #ffa500"/>
     <use xlink:href="#m962772a9a8" x="168.474691" y="309.000946" style="fill: #ffa500; stroke: #ffa500"/>
     <use xlink:href="#m962772a9a8" x="172.375547" y="275.751023" style="fill: #ffa500; stroke: #ffa500"/>
     <use xlink:href="#m962772a9a8" x="176.276403" y="276.27886" style="fill: #ffa500; stroke: #ffa500"/>
     <use xlink:href="#m962772a9a8" x="179.925591" y="275.160282" style="fill: #ffa500; stroke: #ffa500"/>
     <use xlink:href="#m962772a9a8" x="183.826447" y="281.146997" style="fill: #ffa500; stroke: #ffa500"/>
     <use xlink:href="#m962772a9a8" x="187.601469" y="286.056158" style="fill: #ffa500; stroke: #ffa500"/>
     <use xlink:href="#m962772a9a8" x="191.502326" y="366.353072" style="fill: #ffa500; stroke: #ffa500"/>
     <use xlink:href="#m962772a9a8" x="195.277348" y="351.165213" style="fill: #ffa500; stroke: #ffa500"/>
     <use xlink:href="#m962772a9a8" x="199.178204" y="349.882541" style="fill: #ffa500; stroke: #ffa500"/>
     <use xlink:href="#m962772a9a8" x="203.07906" y="362.728407" style="fill: #ffa500; stroke: #ffa500"/>
     <use xlink:href="#m962772a9a8" x="206.854082" y="371.962369" style="fill: #ffa500; stroke: #ffa500"/>
     <use xlink:href="#m962772a9a8" x="210.754938" y="341.618559" style="fill: #ffa500; stroke: #ffa500"/>
     <use xlink:href="#m962772a9a8" x="214.52996" y="301.300538" style="fill: #ffa500; stroke: #ffa500"/>
     <use xlink:href="#m962772a9a8" x="218.430817" y="294.600012" style="fill: #ffa500; stroke: #ffa500"/>
     <use xlink:href="#m962772a9a8" x="222.331673" y="290.388253" style="fill: #ffa500; stroke: #ffa500"/>
     <use xlink:href="#m962772a9a8" x="225.855027" y="286.463659" style="fill: #ffa500; stroke: #ffa500"/>
     <use xlink:href="#m962772a9a8" x="229.755883" y="295.941211" style="fill: #ffa500; stroke: #ffa500"/>
     <use xlink:href="#m962772a9a8" x="233.530905" y="365.924238" style="fill: #ffa500; stroke: #ffa500"/>
     <use xlink:href="#m962772a9a8" x="237.431761" y="372.249535" style="fill: #ffa500; stroke: #ffa500"/>
     <use xlink:href="#m962772a9a8" x="241.206783" y="365.943158" style="fill: #ffa500; stroke: #ffa500"/>
     <use xlink:href="#m962772a9a8" x="245.107639" y="363.902594" style="fill: #ffa500; stroke: #ffa500"/>
     <use xlink:href="#m962772a9a8" x="249.008496" y="373.008928" style="fill: #ffa500; stroke: #ffa500"/>
     <use xlink:href="#m962772a9a8" x="252.783518" y="372.523937" style="fill: #ffa500; stroke: #ffa500"/>
     <use xlink:href="#m962772a9a8" x="256.684374" y="358.184812" style="fill: #ffa500; stroke: #ffa500"/>
     <use xlink:href="#m962772a9a8" x="260.459396" y="330.153823" style="fill: #ffa500; stroke: #ffa500"/>
     <use xlink:href="#m962772a9a8" x="264.360252" y="299.632244" style="fill: #ffa500; stroke: #ffa500"/>
     <use xlink:href="#m962772a9a8" x="268.261108" y="291.312652" style="fill: #ffa500; stroke: #ffa500"/>
     <use xlink:href="#m962772a9a8" x="271.784462" y="288.752778" style="fill: #ffa500; stroke: #ffa500"/>
     <use xlink:href="#m962772a9a8" x="275.685318" y="294.549841" style="fill: #ffa500; stroke: #ffa500"/>
     <use xlink:href="#m962772a9a8" x="279.46034" y="333.118464" style="fill: #ffa500; stroke: #ffa500"/>
     <use xlink:href="#m962772a9a8" x="283.361197" y="331.438865" style="fill: #ffa500; stroke: #ffa500"/>
     <use xlink:href="#m962772a9a8" x="287.136219" y="375.294254" style="fill: #ffa500; stroke: #ffa500"/>
     <use xlink:href="#m962772a9a8" x="291.037075" y="374.342652" style="fill: #ffa500; stroke: #ffa500"/>
     <use xlink:href="#m962772a9a8" x="294.937931" y="369.278968" style="fill: #ffa500; stroke: #ffa500"/>
     <use xlink:href="#m962772a9a8" x="298.712953" y="359.598942" style="fill: #ffa500; stroke: #ffa500"/>
     <use xlink:href="#m962772a9a8" x="302.613809" y="350.053564" style="fill: #ffa500; stroke: #ffa500"/>
     <use xlink:href="#m962772a9a8" x="306.388831" y="320.120153" style="fill: #ffa500; stroke: #ffa500"/>
     <use xlink:href="#m962772a9a8" x="310.289688" y="301.683425" style="fill: #ffa500; stroke: #ffa500"/>
     <use xlink:href="#m962772a9a8" x="314.190544" y="299.347813" style="fill: #ffa500; stroke: #ffa500"/>
     <use xlink:href="#m962772a9a8" x="317.713898" y="302.870375" style="fill: #ffa500; stroke: #ffa500"/>
     <use xlink:href="#m962772a9a8" x="321.614754" y="307.175729" style="fill: #ffa500; stroke: #ffa500"/>
     <use xlink:href="#m962772a9a8" x="325.389776" y="353.702479" style="fill: #ffa500; stroke: #ffa500"/>
     <use xlink:href="#m962772a9a8" x="329.290632" y="374.856949" style="fill: #ffa500; stroke: #ffa500"/>
     <use xlink:href="#m962772a9a8" x="333.065654" y="364.023842" style="fill: #ffa500; stroke: #ffa500"/>
     <use xlink:href="#m962772a9a8" x="336.96651" y="355.923414" style="fill: #ffa500; stroke: #ffa500"/>
     <use xlink:href="#m962772a9a8" x="340.867366" y="370.322336" style="fill: #ffa500; stroke: #ffa500"/>
     <use xlink:href="#m962772a9a8" x="344.642389" y="369.264335" style="fill: #ffa500; stroke: #ffa500"/>
     <use xlink:href="#m962772a9a8" x="348.543245" y="349.360538" style="fill: #ffa500; stroke: #ffa500"/>
     <use xlink:href="#m962772a9a8" x="352.318267" y="309.961446" style="fill: #ffa500; stroke: #ffa500"/>
     <use xlink:href="#m962772a9a8" x="356.219123" y="293.132734" style="fill: #ffa500; stroke: #ffa500"/>
     <use xlink:href="#m962772a9a8" x="360.119979" y="292.756872" style="fill: #ffa500; stroke: #ffa500"/>
     <use xlink:href="#m962772a9a8" x="363.769167" y="296.856794" style="fill: #ffa500; stroke: #ffa500"/>
     <use xlink:href="#m962772a9a8" x="367.670023" y="297.127068" style="fill: #ffa500; stroke: #ffa500"/>
     <use xlink:href="#m962772a9a8" x="371.445045" y="325.703215" style="fill: #ffa500; stroke: #ffa500"/>
     <use xlink:href="#m962772a9a8" x="375.345902" y="365.400108" style="fill: #ffa500; stroke: #ffa500"/>
     <use xlink:href="#m962772a9a8" x="379.120924" y="351.659213" style="fill: #ffa500; stroke: #ffa500"/>
     <use xlink:href="#m962772a9a8" x="383.02178" y="360.524678" style="fill: #ffa500; stroke: #ffa500"/>
     <use xlink:href="#m962772a9a8" x="386.922636" y="369.077953" style="fill: #ffa500; stroke: #ffa500"/>
     <use xlink:href="#m962772a9a8" x="390.697658" y="377.942302" style="fill: #ffa500; stroke: #ffa500"/>
     <use xlink:href="#m962772a9a8" x="394.598514" y="365.664821" style="fill: #ffa500; stroke: #ffa500"/>
     <use xlink:href="#m962772a9a8" x="398.373536" y="311.809137" style="fill: #ffa500; stroke: #ffa500"/>
     <use xlink:href="#m962772a9a8" x="402.274392" y="294.472383" style="fill: #ffa500; stroke: #ffa500"/>
     <use xlink:href="#m962772a9a8" x="406.175249" y="293.696849" style="fill: #ffa500; stroke: #ffa500"/>
     <use xlink:href="#m962772a9a8" x="409.698603" y="292.200586" style="fill: #ffa500; stroke: #ffa500"/>
     <use xlink:href="#m962772a9a8" x="413.599459" y="297.04502" style="fill: #ffa500; stroke: #ffa500"/>
     <use xlink:href="#m962772a9a8" x="417.374481" y="342.175726" style="fill: #ffa500; stroke: #ffa500"/>
     <use xlink:href="#m962772a9a8" x="421.275337" y="356.436294" style="fill: #ffa500; stroke: #ffa500"/>
     <use xlink:href="#m962772a9a8" x="425.050359" y="361.290453" style="fill: #ffa500; stroke: #ffa500"/>
     <use xlink:href="#m962772a9a8" x="428.951215" y="365.600061" style="fill: #ffa500; stroke: #ffa500"/>
     <use xlink:href="#m962772a9a8" x="432.852071" y="370.95564" style="fill: #ffa500; stroke: #ffa500"/>
     <use xlink:href="#m962772a9a8" x="436.627094" y="366.923957" style="fill: #ffa500; stroke: #ffa500"/>
     <use xlink:href="#m962772a9a8" x="440.52795" y="343.184753" style="fill: #ffa500; stroke: #ffa500"/>
     <use xlink:href="#m962772a9a8" x="444.302972" y="301.814103" style="fill: #ffa500; stroke: #ffa500"/>
     <use xlink:href="#m962772a9a8" x="448.203828" y="282.964959" style="fill: #ffa500; stroke: #ffa500"/>
     <use xlink:href="#m962772a9a8" x="452.104684" y="287.595364" style="fill: #ffa500; stroke: #ffa500"/>
     <use xlink:href="#m962772a9a8" x="455.628038" y="290.190975" style="fill: #ffa500; stroke: #ffa500"/>
     <use xlink:href="#m962772a9a8" x="459.528894" y="289.061822" style="fill: #ffa500; stroke: #ffa500"/>
     <use xlink:href="#m962772a9a8" x="463.303916" y="337.71311" style="fill: #ffa500; stroke: #ffa500"/>
     <use xlink:href="#m962772a9a8" x="467.204772" y="371.62292" style="fill: #ffa500; stroke: #ffa500"/>
     <use xlink:href="#m962772a9a8" x="470.979795" y="359.849095" style="fill: #ffa500; stroke: #ffa500"/>
     <use xlink:href="#m962772a9a8" x="474.880651" y="368.835457" style="fill: #ffa500; stroke: #ffa500"/>
     <use xlink:href="#m962772a9a8" x="478.781507" y="368.083722" style="fill: #ffa500; stroke: #ffa500"/>
     <use xlink:href="#m962772a9a8" x="482.556529" y="366.341585" style="fill: #ffa500; stroke: #ffa500"/>
     <use xlink:href="#m962772a9a8" x="486.457385" y="349.1773" style="fill: #ffa500; stroke: #ffa500"/>
     <use xlink:href="#m962772a9a8" x="490.232407" y="301.376568" style="fill: #ffa500; stroke: #ffa500"/>
     <use xlink:href="#m962772a9a8" x="494.133263" y="282.95696" style="fill: #ffa500; stroke: #ffa500"/>
     <use xlink:href="#m962772a9a8" x="498.03412" y="283.289524" style="fill: #ffa500; stroke: #ffa500"/>
     <use xlink:href="#m962772a9a8" x="501.557474" y="286.168836" style="fill: #ffa500; stroke: #ffa500"/>
     <use xlink:href="#m962772a9a8" x="505.45833" y="309.591762" style="fill: #ffa500; stroke: #ffa500"/>
     <use xlink:href="#m962772a9a8" x="509.233352" y="335.840366" style="fill: #ffa500; stroke: #ffa500"/>
     <use xlink:href="#m962772a9a8" x="513.134208" y="366.32627" style="fill: #ffa500; stroke: #ffa500"/>
     <use xlink:href="#m962772a9a8" x="516.90923" y="345.983473" style="fill: #ffa500; stroke: #ffa500"/>
     <use xlink:href="#m962772a9a8" x="520.810086" y="363.332092" style="fill: #ffa500; stroke: #ffa500"/>
     <use xlink:href="#m962772a9a8" x="524.710942" y="363.168727" style="fill: #ffa500; stroke: #ffa500"/>
     <use xlink:href="#m962772a9a8" x="528.485964" y="364.878637" style="fill: #ffa500; stroke: #ffa500"/>
     <use xlink:href="#m962772a9a8" x="532.386821" y="354.153648" style="fill: #ffa500; stroke: #ffa500"/>
     <use xlink:href="#m962772a9a8" x="536.161843" y="309.720774" style="fill: #ffa500; stroke: #ffa500"/>
     <use xlink:href="#m962772a9a8" x="540.062699" y="290.341486" style="fill: #ffa500; stroke: #ffa500"/>
    </g>
   </g>
   <g id="line2d_49">
    <path d="M 80.516676 277.695543 
L 84.417532 280.66939 
L 87.940886 282.455186 
L 91.841742 282.455186 
L 95.616765 276.942357 
L 99.517621 270.473873 
L 103.292643 264.30871 
L 107.193499 257.501778 
L 111.094355 250.657327 
L 114.869377 243.665497 
L 118.770233 235.560972 
L 122.545255 224.899286 
L 126.446112 286.450704 
L 130.346968 287.414353 
L 133.870322 289.70009 
L 137.771178 291.724038 
L 141.5462 291.724038 
L 145.447056 285.299496 
L 149.222078 278.664789 
L 153.122934 272.013986 
L 157.023791 265.153651 
L 160.798813 258.399869 
L 164.699669 250.453186 
L 168.474691 240.947596 
L 172.375547 295.910695 
L 176.276403 295.910695 
L 179.925591 302.61145 
L 183.826447 302.92115 
L 187.601469 302.92115 
L 191.502326 296.366056 
L 195.277348 289.830234 
L 199.178204 286.387792 
L 203.07906 279.65799 
L 206.854082 272.786854 
L 210.754938 264.517082 
L 214.52996 255.170932 
L 218.430817 296.997344 
L 222.331673 299.057192 
L 225.855027 301.16318 
L 229.755883 301.16318 
L 233.530905 295.514244 
L 237.431761 288.756869 
L 241.206783 282.10298 
L 245.107639 275.107925 
L 249.008496 268.220022 
L 252.783518 260.800746 
L 256.684374 251.595446 
L 260.459396 233.014388 
L 264.360252 298.648383 
L 268.261108 297.556675 
L 271.784462 298.950491 
L 275.685318 298.950491 
L 279.46034 293.325549 
L 283.361197 286.628206 
L 287.136219 280.2785 
L 291.037075 273.515635 
L 294.937931 266.395228 
L 298.712953 259.237612 
L 302.613809 251.251314 
L 306.388831 243.030141 
L 310.289688 295.677219 
L 314.190544 293.550312 
L 317.713898 294.002513 
L 321.614754 295.073834 
L 325.389776 295.073834 
L 329.290632 288.429216 
L 333.065654 281.894633 
L 336.96651 277.793576 
L 340.867366 270.587055 
L 344.642389 263.692914 
L 348.543245 256.166218 
L 352.318267 246.478179 
L 356.219123 293.106187 
L 360.119979 294.069991 
L 363.769167 296.18576 
L 367.670023 298.605459 
L 371.445045 298.605459 
L 375.345902 292.181976 
L 379.120924 285.556062 
L 383.02178 281.892007 
L 386.922636 274.932643 
L 390.697658 267.665987 
L 394.598514 259.688805 
L 398.373536 249.013521 
L 402.274392 306.777066 
L 406.175249 308.828529 
L 409.698603 310.322123 
L 413.599459 310.322123 
L 417.374481 303.762122 
L 421.275337 299.081785 
L 425.050359 292.566692 
L 428.951215 285.938467 
L 432.852071 279.080539 
L 436.627094 272.071874 
L 440.52795 263.948693 
L 444.302972 254.623373 
L 448.203828 314.331143 
L 452.104684 316.140507 
L 455.628038 317.848517 
L 459.528894 317.848517 
L 463.303916 311.628551 
L 467.204772 305.013673 
L 470.979795 298.495319 
L 474.880651 291.863777 
L 478.781507 284.75628 
L 482.556529 277.334783 
L 486.457385 269.18298 
L 490.232407 250.550683 
L 494.133263 303.751485 
L 498.03412 304.225876 
L 501.557474 289.113615 
L 505.45833 289.43805 
L 509.233352 289.43805 
L 513.134208 283.139776 
L 516.90923 276.810115 
L 520.810086 270.387993 
L 524.710942 263.777017 
L 528.485964 257.032481 
L 532.386821 248.93002 
L 536.161843 233.449443 
L 540.062699 284.191932 
" clip-path="url(#p50b52d180a)" style="fill: none; stroke: #cc0000; stroke-width: 1.5; stroke-linecap: square"/>
   </g>
   <g id="line2d_50">
    <defs>
     <path id="m04d084626a" d="M 0 1.25 
C 0.331504 1.25 0.649475 1.118292 0.883883 0.883883 
C 1.118292 0.649475 1.25 0.331504 1.25 0 
C 1.25 -0.331504 1.118292 -0.649475 0.883883 -0.883883 
C 0.649475 -1.118292 0.331504 -1.25 0 -1.25 
C -0.331504 -1.25 -0.649475 -1.118292 -0.883883 -0.883883 
C -1.118292 -0.649475 -1.25 -0.331504 -1.25 0 
C -1.25 0.331504 -1.118292 0.649475 -0.883883 0.883883 
C -0.649475 1.118292 -0.331504 1.25 0 1.25 
z
" style="stroke: #cc0000"/>
    </defs>
    <g clip-path="url(#p50b52d180a)">
     <use xlink:href="#m04d084626a" x="80.516676" y="277.695543" style="fill: #cc0000; stroke: #cc0000"/>
     <use xlink:href="#m04d084626a" x="84.417532" y="276.068272" style="fill: #cc0000; stroke: #cc0000"/>
     <use xlink:href="#m04d084626a" x="87.940886" y="281.275538" style="fill: #cc0000; stroke: #cc0000"/>
     <use xlink:href="#m04d084626a" x="91.841742" y="281.849869" style="fill: #cc0000; stroke: #cc0000"/>
     <use xlink:href="#m04d084626a" x="95.616765" y="292.991886" style="fill: #cc0000; stroke: #cc0000"/>
     <use xlink:href="#m04d084626a" x="99.517621" y="293.387536" style="fill: #cc0000; stroke: #cc0000"/>
     <use xlink:href="#m04d084626a" x="103.292643" y="281.728621" style="fill: #cc0000; stroke: #cc0000"/>
     <use xlink:href="#m04d084626a" x="107.193499" y="268.744684" style="fill: #cc0000; stroke: #cc0000"/>
     <use xlink:href="#m04d084626a" x="111.094355" y="240.497356" style="fill: #cc0000; stroke: #cc0000"/>
     <use xlink:href="#m04d084626a" x="114.869377" y="230.948845" style="fill: #cc0000; stroke: #cc0000"/>
     <use xlink:href="#m04d084626a" x="118.770233" y="223.689304" style="fill: #cc0000; stroke: #cc0000"/>
     <use xlink:href="#m04d084626a" x="122.545255" y="235.405652" style="fill: #cc0000; stroke: #cc0000"/>
     <use xlink:href="#m04d084626a" x="126.446112" y="257.921607" style="fill: #cc0000; stroke: #cc0000"/>
     <use xlink:href="#m04d084626a" x="130.346968" y="266.840691" style="fill: #cc0000; stroke: #cc0000"/>
     <use xlink:href="#m04d084626a" x="133.870322" y="269.963956" style="fill: #cc0000; stroke: #cc0000"/>
     <use xlink:href="#m04d084626a" x="137.771178" y="272.128015" style="fill: #cc0000; stroke: #cc0000"/>
     <use xlink:href="#m04d084626a" x="141.5462" y="280.293954" style="fill: #cc0000; stroke: #cc0000"/>
     <use xlink:href="#m04d084626a" x="145.447056" y="273.386901" style="fill: #cc0000; stroke: #cc0000"/>
     <use xlink:href="#m04d084626a" x="149.222078" y="254.222817" style="fill: #cc0000; stroke: #cc0000"/>
     <use xlink:href="#m04d084626a" x="153.122934" y="263.332052" style="fill: #cc0000; stroke: #cc0000"/>
     <use xlink:href="#m04d084626a" x="157.023791" y="251.124912" style="fill: #cc0000; stroke: #cc0000"/>
     <use xlink:href="#m04d084626a" x="160.798813" y="244.679876" style="fill: #cc0000; stroke: #cc0000"/>
     <use xlink:href="#m04d084626a" x="164.699669" y="230.848337" style="fill: #cc0000; stroke: #cc0000"/>
     <use xlink:href="#m04d084626a" x="168.474691" y="231.251873" style="fill: #cc0000; stroke: #cc0000"/>
     <use xlink:href="#m04d084626a" x="172.375547" y="275.751023" style="fill: #cc0000; stroke: #cc0000"/>
     <use xlink:href="#m04d084626a" x="176.276403" y="275.663295" style="fill: #cc0000; stroke: #cc0000"/>
     <use xlink:href="#m04d084626a" x="179.925591" y="274.901097" style="fill: #cc0000; stroke: #cc0000"/>
     <use xlink:href="#m04d084626a" x="183.826447" y="281.146997" style="fill: #cc0000; stroke: #cc0000"/>
     <use xlink:href="#m04d084626a" x="187.601469" y="292.676916" style="fill: #cc0000; stroke: #cc0000"/>
     <use xlink:href="#m04d084626a" x="191.502326" y="284.964018" style="fill: #cc0000; stroke: #cc0000"/>
     <use xlink:href="#m04d084626a" x="195.277348" y="256.951759" style="fill: #cc0000; stroke: #cc0000"/>
     <use xlink:href="#m04d084626a" x="199.178204" y="254.892" style="fill: #cc0000; stroke: #cc0000"/>
     <use xlink:href="#m04d084626a" x="203.07906" y="244.42369" style="fill: #cc0000; stroke: #cc0000"/>
     <use xlink:href="#m04d084626a" x="206.854082" y="230.573616" style="fill: #cc0000; stroke: #cc0000"/>
     <use xlink:href="#m04d084626a" x="210.754938" y="230.510166" style="fill: #cc0000; stroke: #cc0000"/>
     <use xlink:href="#m04d084626a" x="214.52996" y="272.532035" style="fill: #cc0000; stroke: #cc0000"/>
     <use xlink:href="#m04d084626a" x="218.430817" y="295.046714" style="fill: #cc0000; stroke: #cc0000"/>
     <use xlink:href="#m04d084626a" x="222.331673" y="290.388253" style="fill: #cc0000; stroke: #cc0000"/>
     <use xlink:href="#m04d084626a" x="225.855027" y="286.463659" style="fill: #cc0000; stroke: #cc0000"/>
     <use xlink:href="#m04d084626a" x="229.755883" y="288.528515" style="fill: #cc0000; stroke: #cc0000"/>
     <use xlink:href="#m04d084626a" x="233.530905" y="304.912441" style="fill: #cc0000; stroke: #cc0000"/>
     <use xlink:href="#m04d084626a" x="237.431761" y="297.593494" style="fill: #cc0000; stroke: #cc0000"/>
     <use xlink:href="#m04d084626a" x="241.206783" y="293.035703" style="fill: #cc0000; stroke: #cc0000"/>
     <use xlink:href="#m04d084626a" x="245.107639" y="267.177631" style="fill: #cc0000; stroke: #cc0000"/>
     <use xlink:href="#m04d084626a" x="249.008496" y="268.13102" style="fill: #cc0000; stroke: #cc0000"/>
     <use xlink:href="#m04d084626a" x="252.783518" y="245.838371" style="fill: #cc0000; stroke: #cc0000"/>
     <use xlink:href="#m04d084626a" x="256.684374" y="228.657265" style="fill: #cc0000; stroke: #cc0000"/>
     <use xlink:href="#m04d084626a" x="260.459396" y="250.950872" style="fill: #cc0000; stroke: #cc0000"/>
     <use xlink:href="#m04d084626a" x="264.360252" y="281.81158" style="fill: #cc0000; stroke: #cc0000"/>
     <use xlink:href="#m04d084626a" x="268.261108" y="291.312652" style="fill: #cc0000; stroke: #cc0000"/>
     <use xlink:href="#m04d084626a" x="271.784462" y="288.752778" style="fill: #cc0000; stroke: #cc0000"/>
     <use xlink:href="#m04d084626a" x="275.685318" y="292.516578" style="fill: #cc0000; stroke: #cc0000"/>
     <use xlink:href="#m04d084626a" x="279.46034" y="306.405701" style="fill: #cc0000; stroke: #cc0000"/>
     <use xlink:href="#m04d084626a" x="283.361197" y="298.025576" style="fill: #cc0000; stroke: #cc0000"/>
     <use xlink:href="#m04d084626a" x="287.136219" y="296.665004" style="fill: #cc0000; stroke: #cc0000"/>
     <use xlink:href="#m04d084626a" x="291.037075" y="290.186367" style="fill: #cc0000; stroke: #cc0000"/>
     <use xlink:href="#m04d084626a" x="294.937931" y="278.020997" style="fill: #cc0000; stroke: #cc0000"/>
     <use xlink:href="#m04d084626a" x="298.712953" y="263.344681" style="fill: #cc0000; stroke: #cc0000"/>
     <use xlink:href="#m04d084626a" x="302.613809" y="254.554266" style="fill: #cc0000; stroke: #cc0000"/>
     <use xlink:href="#m04d084626a" x="306.388831" y="271.076557" style="fill: #cc0000; stroke: #cc0000"/>
     <use xlink:href="#m04d084626a" x="310.289688" y="295.059477" style="fill: #cc0000; stroke: #cc0000"/>
     <use xlink:href="#m04d084626a" x="314.190544" y="299.347813" style="fill: #cc0000; stroke: #cc0000"/>
     <use xlink:href="#m04d084626a" x="317.713898" y="302.870375" style="fill: #cc0000; stroke: #cc0000"/>
     <use xlink:href="#m04d084626a" x="321.614754" y="307.175729" style="fill: #cc0000; stroke: #cc0000"/>
     <use xlink:href="#m04d084626a" x="325.389776" y="319.654874" style="fill: #cc0000; stroke: #cc0000"/>
     <use xlink:href="#m04d084626a" x="329.290632" y="318.899211" style="fill: #cc0000; stroke: #cc0000"/>
     <use xlink:href="#m04d084626a" x="333.065654" y="299.811629" style="fill: #cc0000; stroke: #cc0000"/>
     <use xlink:href="#m04d084626a" x="336.96651" y="298.440873" style="fill: #cc0000; stroke: #cc0000"/>
     <use xlink:href="#m04d084626a" x="340.867366" y="285.9398" style="fill: #cc0000; stroke: #cc0000"/>
     <use xlink:href="#m04d084626a" x="344.642389" y="273.395983" style="fill: #cc0000; stroke: #cc0000"/>
     <use xlink:href="#m04d084626a" x="348.543245" y="271.749769" style="fill: #cc0000; stroke: #cc0000"/>
     <use xlink:href="#m04d084626a" x="352.318267" y="271.262458" style="fill: #cc0000; stroke: #cc0000"/>
     <use xlink:href="#m04d084626a" x="356.219123" y="287.341565" style="fill: #cc0000; stroke: #cc0000"/>
     <use xlink:href="#m04d084626a" x="360.119979" y="292.756872" style="fill: #cc0000; stroke: #cc0000"/>
     <use xlink:href="#m04d084626a" x="363.769167" y="296.856794" style="fill: #cc0000; stroke: #cc0000"/>
     <use xlink:href="#m04d084626a" x="367.670023" y="297.127068" style="fill: #cc0000; stroke: #cc0000"/>
     <use xlink:href="#m04d084626a" x="371.445045" y="306.710947" style="fill: #cc0000; stroke: #cc0000"/>
     <use xlink:href="#m04d084626a" x="375.345902" y="302.479689" style="fill: #cc0000; stroke: #cc0000"/>
     <use xlink:href="#m04d084626a" x="379.120924" y="296.943029" style="fill: #cc0000; stroke: #cc0000"/>
     <use xlink:href="#m04d084626a" x="383.02178" y="292.102737" style="fill: #cc0000; stroke: #cc0000"/>
     <use xlink:href="#m04d084626a" x="386.922636" y="267.292498" style="fill: #cc0000; stroke: #cc0000"/>
     <use xlink:href="#m04d084626a" x="390.697658" y="238.934681" style="fill: #cc0000; stroke: #cc0000"/>
     <use xlink:href="#m04d084626a" x="394.598514" y="229.410868" style="fill: #cc0000; stroke: #cc0000"/>
     <use xlink:href="#m04d084626a" x="398.373536" y="248.470141" style="fill: #cc0000; stroke: #cc0000"/>
     <use xlink:href="#m04d084626a" x="402.274392" y="280.83309" style="fill: #cc0000; stroke: #cc0000"/>
     <use xlink:href="#m04d084626a" x="406.175249" y="293.696849" style="fill: #cc0000; stroke: #cc0000"/>
     <use xlink:href="#m04d084626a" x="409.698603" y="292.200586" style="fill: #cc0000; stroke: #cc0000"/>
     <use xlink:href="#m04d084626a" x="413.599459" y="299.980489" style="fill: #cc0000; stroke: #cc0000"/>
     <use xlink:href="#m04d084626a" x="417.374481" y="308.934957" style="fill: #cc0000; stroke: #cc0000"/>
     <use xlink:href="#m04d084626a" x="421.275337" y="293.355629" style="fill: #cc0000; stroke: #cc0000"/>
     <use xlink:href="#m04d084626a" x="425.050359" y="270.4232" style="fill: #cc0000; stroke: #cc0000"/>
     <use xlink:href="#m04d084626a" x="428.951215" y="274.442742" style="fill: #cc0000; stroke: #cc0000"/>
     <use xlink:href="#m04d084626a" x="432.852071" y="272.762815" style="fill: #cc0000; stroke: #cc0000"/>
     <use xlink:href="#m04d084626a" x="436.627094" y="253.309457" style="fill: #cc0000; stroke: #cc0000"/>
     <use xlink:href="#m04d084626a" x="440.52795" y="242.512743" style="fill: #cc0000; stroke: #cc0000"/>
     <use xlink:href="#m04d084626a" x="444.302972" y="249.669949" style="fill: #cc0000; stroke: #cc0000"/>
     <use xlink:href="#m04d084626a" x="448.203828" y="274.676568" style="fill: #cc0000; stroke: #cc0000"/>
     <use xlink:href="#m04d084626a" x="452.104684" y="287.595364" style="fill: #cc0000; stroke: #cc0000"/>
     <use xlink:href="#m04d084626a" x="455.628038" y="290.190975" style="fill: #cc0000; stroke: #cc0000"/>
     <use xlink:href="#m04d084626a" x="459.528894" y="290.448831" style="fill: #cc0000; stroke: #cc0000"/>
     <use xlink:href="#m04d084626a" x="463.303916" y="302.827939" style="fill: #cc0000; stroke: #cc0000"/>
     <use xlink:href="#m04d084626a" x="467.204772" y="294.756952" style="fill: #cc0000; stroke: #cc0000"/>
     <use xlink:href="#m04d084626a" x="470.979795" y="287.26459" style="fill: #cc0000; stroke: #cc0000"/>
     <use xlink:href="#m04d084626a" x="474.880651" y="277.968785" style="fill: #cc0000; stroke: #cc0000"/>
     <use xlink:href="#m04d084626a" x="478.781507" y="262.921457" style="fill: #cc0000; stroke: #cc0000"/>
     <use xlink:href="#m04d084626a" x="482.556529" y="241.852877" style="fill: #cc0000; stroke: #cc0000"/>
     <use xlink:href="#m04d084626a" x="486.457385" y="238.327841" style="fill: #cc0000; stroke: #cc0000"/>
     <use xlink:href="#m04d084626a" x="490.232407" y="267.863941" style="fill: #cc0000; stroke: #cc0000"/>
     <use xlink:href="#m04d084626a" x="494.133263" y="282.95696" style="fill: #cc0000; stroke: #cc0000"/>
     <use xlink:href="#m04d084626a" x="498.03412" y="283.289524" style="fill: #cc0000; stroke: #cc0000"/>
     <use xlink:href="#m04d084626a" x="501.557474" y="286.168836" style="fill: #cc0000; stroke: #cc0000"/>
     <use xlink:href="#m04d084626a" x="505.45833" y="291.701736" style="fill: #cc0000; stroke: #cc0000"/>
     <use xlink:href="#m04d084626a" x="509.233352" y="302.548093" style="fill: #cc0000; stroke: #cc0000"/>
     <use xlink:href="#m04d084626a" x="513.134208" y="301.369139" style="fill: #cc0000; stroke: #cc0000"/>
     <use xlink:href="#m04d084626a" x="516.90923" y="295.575098" style="fill: #cc0000; stroke: #cc0000"/>
     <use xlink:href="#m04d084626a" x="520.810086" y="281.444008" style="fill: #cc0000; stroke: #cc0000"/>
     <use xlink:href="#m04d084626a" x="524.710942" y="270.996757" style="fill: #cc0000; stroke: #cc0000"/>
     <use xlink:href="#m04d084626a" x="528.485964" y="270.111835" style="fill: #cc0000; stroke: #cc0000"/>
     <use xlink:href="#m04d084626a" x="532.386821" y="257.011211" style="fill: #cc0000; stroke: #cc0000"/>
     <use xlink:href="#m04d084626a" x="536.161843" y="272.174856" style="fill: #cc0000; stroke: #cc0000"/>
     <use xlink:href="#m04d084626a" x="540.062699" y="290.341486" style="fill: #cc0000; stroke: #cc0000"/>
    </g>
   </g>
   <g id="patch_9">
    <path d="M 57.539375 401.065625 
L 57.539375 215.242813 
" style="fill: none; stroke: #000000; stroke-width: 0.8; stroke-linejoin: miter; stroke-linecap: square"/>
   </g>
   <g id="patch_10">
    <path d="M 563.04 401.065625 
L 563.04 215.242813 
" style="fill: none; stroke: #000000; stroke-width: 0.8; stroke-linejoin: miter; stroke-linecap: square"/>
   </g>
   <g id="patch_11">
    <path d="M 57.539375 401.065625 
L 563.04 401.065625 
" style="fill: none; stroke: #000000; stroke-width: 0.8; stroke-linejoin: miter; stroke-linecap: square"/>
   </g>
   <g id="patch_12">
    <path d="M 57.539375 215.242813 
L 563.04 215.242813 
" style="fill: none; stroke: #000000; stroke-width: 0.8; stroke-linejoin: miter; stroke-linecap: square"/>
   </g>
   <g id="legend_2">
    <g id="patch_13">
     <path d="M 65.939375 395.065625 
L 163.019375 395.065625 
Q 165.419375 395.065625 165.419375 392.665625 
L 165.419375 319.945625 
Q 165.419375 317.545625 163.019375 317.545625 
L 65.939375 317.545625 
Q 63.539375 317.545625 63.539375 319.945625 
L 63.539375 392.665625 
Q 63.539375 395.065625 65.939375 395.065625 
z
" style="fill: #ffffff; opacity: 0.8; stroke: #cccccc; stroke-linejoin: miter"/>
    </g>
    <g id="line2d_51">
     <path d="M 68.339375 326.905625 
L 80.339375 326.905625 
L 92.339375 326.905625 
" style="fill: none; stroke: #ffa500; stroke-width: 1.5; stroke-linecap: square"/>
    </g>
    <g id="text_32">
     <!-- $TP_{\rm epi,mod}$ -->
     <g transform="translate(101.939375 331.105625)">
      <text>
       <tspan style="font: oblique 12px 'DejaVu Sans'" x="0 7.330078" y="-0.25">TP</tspan>
       <tspan style="font: 8.4px 'DejaVu Sans'" x="14.566406 19.734375 25.066406 27.400195 31.706836 39.889453 45.028711" y="1.71875">epi,mod</tspan>
      </text>
     </g>
    </g>
    <g id="line2d_52">
     <g>
      <use xlink:href="#m962772a9a8" x="80.339375" y="345.385625" style="fill: #ffa500; stroke: #ffa500"/>
     </g>
    </g>
    <g id="text_33">
     <!-- $TP_{\rm epi,obs}$ -->
     <g transform="translate(101.939375 349.585625)">
      <text>
       <tspan style="font: oblique 12px 'DejaVu Sans'" x="0 7.330078" y="-0.25">TP</tspan>
       <tspan style="font: 8.4px 'DejaVu Sans'" x="14.566406 19.734375 25.066406 27.400195 31.706836 36.846094 42.178125" y="1.71875">epi,obs</tspan>
      </text>
     </g>
    </g>
    <g id="line2d_53">
     <path d="M 68.339375 363.865625 
L 80.339375 363.865625 
L 92.339375 363.865625 
" style="fill: none; stroke: #cc0000; stroke-width: 1.5; stroke-linecap: square"/>
    </g>
    <g id="text_34">
     <!-- $TP_{\rm hypo,mod}$ -->
     <g transform="translate(101.939375 368.065625)">
      <text>
       <tspan style="font: oblique 12px 'DejaVu Sans'" x="0 7.330078" y="-0.25">TP</tspan>
       <tspan style="font: 8.4px 'DejaVu Sans'" x="14.566406 19.890234 24.861328 30.193359 35.332617 39.639258 47.821875 52.961133" y="1.71875">hypo,mod</tspan>
      </text>
     </g>
    </g>
    <g id="line2d_54">
     <g>
      <use xlink:href="#m04d084626a" x="80.339375" y="382.345625" style="fill: #cc0000; stroke: #cc0000"/>
     </g>
    </g>
    <g id="text_35">
     <!-- $TP_{\rm hypo,obs}$ -->
     <g transform="translate(101.939375 386.545625)">
      <text>
       <tspan style="font: oblique 12px 'DejaVu Sans'" x="0 7.330078" y="-0.25">TP</tspan>
       <tspan style="font: 8.4px 'DejaVu Sans'" x="14.566406 19.890234 24.861328 30.193359 35.332617 39.639258 44.778516 50.110547" y="1.71875">hypo,obs</tspan>
      </text>
     </g>
    </g>
   </g>
  </g>
 </g>
 <defs>
  <clipPath id="p1dc9ec9cde">
   <rect x="57.539375" y="12.96" width="505.500625" height="185.822812"/>
  </clipPath>
  <clipPath id="p50b52d180a">
   <rect x="57.539375" y="215.242813" width="505.500625" height="185.822812"/>
  </clipPath>
 </defs>
</svg>
